<svg width="41" height="60" viewBox="0 0 41 60" fill="none" xmlns="http://www.w3.org/2000/svg">
<path d="M29.9474 41.3753H10.6104C9.91354 39.9235 10.082 38.9453 6.58573 34.2205C3.08949 29.4957 0.253906 28.787 0.253906 19.3374C0.253906 9.05876 6.69023 0 20.5401 0C34.39 0 40.7487 10.9752 40.7487 19.3374C40.7487 27.6996 37.3516 30.3999 34.3028 33.9713C31.8639 36.8284 30.383 40.0977 29.9474 41.3753Z" fill="#E7E7E7"/>
<path d="M31.1353 46.3764H9.51855V49.2349H31.1353V46.3764Z" fill="#E7E7E7"/>
<path d="M31.1353 52.8079H9.51855V58.0334C9.51855 59.2393 9.51855 59.9986 11.4837 59.9986H28.9468C29.8897 59.9986 31.1353 60.1325 31.1353 57.8101V52.8079Z" fill="#E7E7E7"/>
<path d="M12.5447 24.5476C12.2815 24.5476 18.5313 15.5129 21.6891 10.9955V19.9425H28.0046L18.7287 33.9711V24.5476H12.5447Z" fill="#A7A9AC"/>
</svg>
