<svg width="150" height="150" viewBox="0 0 150 150" fill="none" xmlns="http://www.w3.org/2000/svg">
<path d="M69.6171 97.5232H59.6934V109.929H69.6171V97.5232Z" fill="#FFF1E8"/>
<path d="M110.811 109.397H98.2188V49.9385H108.849C109.545 50.1167 110.16 50.525 110.595 51.0969C111.03 51.6688 111.258 52.3708 111.244 53.0891C111.238 55.7019 110.811 109.397 110.811 109.397Z" fill="#FFF1E8"/>
<path d="M32.7876 109.397H45.297V49.9385H34.7492C34.0533 50.1167 33.4381 50.525 33.0034 51.0969C32.5686 51.6688 32.3397 52.3708 32.3542 53.0891C32.3565 55.7019 32.7876 109.397 32.7876 109.397Z" fill="#FFF1E8"/>
<path d="M20.9756 82.2673C20.9756 82.2673 17.5885 83.157 16.0374 87.9155C14.4862 92.674 15.2694 95.2883 20.9749 95.2883C26.6804 95.2883 27.5721 91.4236 25.7292 87.975C23.8864 84.5264 22.3249 82.7809 20.9756 82.2673Z" fill="#FFF1E8"/>
<path d="M125.839 79.5583C125.839 79.5583 122.053 80.5527 120.319 85.8711C118.585 91.1896 119.461 94.1115 125.838 94.1115C132.216 94.1115 133.212 89.792 131.152 85.9376C129.093 82.0832 127.348 80.1324 125.839 79.5583Z" fill="#FFF1E8"/>
<path d="M112.762 110.915H99.0403C98.6974 110.915 98.3688 110.779 98.1263 110.536C97.8838 110.294 97.7475 109.965 97.7475 109.622C97.7475 109.279 97.8838 108.95 98.1263 108.708C98.3688 108.465 98.6974 108.329 99.0403 108.329H110.176V52.4594C110.176 52.1167 110.039 51.7881 109.797 51.5459C109.554 51.3037 109.226 51.1676 108.883 51.1676H98.8107C98.4733 51.1594 98.1524 51.0195 97.9166 50.778C97.6809 50.5364 97.5488 50.2123 97.5488 49.8748C97.5488 49.5372 97.6809 49.213 97.9166 48.9715C98.1524 48.7299 98.4733 48.59 98.8107 48.5818H108.883C109.911 48.583 110.897 48.9919 111.624 49.7188C112.351 50.4457 112.76 51.4312 112.762 52.4594V110.915Z" fill="#9B9B9B"/>
<path d="M51.3013 110.915H31.2188V52.4592C31.2202 51.4311 31.6295 50.4455 32.3565 49.7186C33.0835 48.9917 34.069 48.5828 35.0971 48.5815H45.1701C45.5075 48.5898 45.8284 48.7297 46.0641 48.9712C46.2999 49.2128 46.4319 49.537 46.4319 49.8745C46.4319 50.2121 46.2999 50.5361 46.0641 50.7777C45.8284 51.0193 45.5075 51.1592 45.1701 51.1674H35.0971C34.7544 51.1674 34.4258 51.3034 34.1834 51.5457C33.9411 51.7879 33.8049 52.1165 33.8047 52.4592V108.329H51.3013C51.6442 108.329 51.9732 108.465 52.2157 108.708C52.4582 108.95 52.5945 109.279 52.5945 109.622C52.5945 109.965 52.4582 110.294 52.2157 110.536C51.9732 110.779 51.6442 110.915 51.3013 110.915Z" fill="#9B9B9B"/>
<path d="M83.6842 110.915H45.3027V40.4472C45.304 39.0702 45.8516 37.7499 46.8253 36.7761C47.7989 35.8023 49.1191 35.2546 50.4961 35.2532H78.4901C79.8672 35.2546 81.1876 35.8023 82.1613 36.7761C83.1351 37.7498 83.6828 39.0701 83.6842 40.4472V110.915ZM47.8887 108.329H81.0983V40.4472C81.0974 39.7558 80.8226 39.0927 80.3336 38.6038C79.8446 38.1148 79.1815 37.8398 78.4901 37.8389H50.4961C49.8047 37.8398 49.1418 38.1149 48.653 38.6039C48.1641 39.0929 47.8893 39.7558 47.8887 40.4472V108.329Z" fill="#F09108"/>
<path d="M106.135 58.0657H103.549V63.3316H106.135V58.0657Z" fill="#9B9B9B"/>
<path d="M106.13 69.9639H103.543V75.2305H106.13V69.9639Z" fill="#9B9B9B"/>
<path d="M106.135 81.4712H103.549V86.7379H106.135V81.4712Z" fill="#9B9B9B"/>
<path d="M106.13 95.5146H103.543V100.78H106.13V95.5146Z" fill="#9B9B9B"/>
<path d="M40.9968 58.0657H38.4102V63.3316H40.9968V58.0657Z" fill="#9B9B9B"/>
<path d="M40.9948 69.9639H38.4082V75.2305H40.9948V69.9639Z" fill="#9B9B9B"/>
<path d="M40.9948 81.4714H38.4082V86.7381H40.9948V81.4714Z" fill="#9B9B9B"/>
<path d="M40.9968 95.5146H38.4102V100.78H40.9968V95.5146Z" fill="#9B9B9B"/>
<path d="M70.8599 110.915H58.1309V96.0737H70.8599V110.915ZM60.7176 108.329H68.2736V98.6595H60.7176V108.329Z" fill="#F09108"/>
<path d="M78.1903 44.2905H50.7969V46.8771H78.1903V44.2905Z" fill="#9B9B9B"/>
<path d="M94.3168 44.2905H86.9199V46.8771H94.3168V44.2905Z" fill="#9B9B9B"/>
<path d="M78.1883 51.7996H50.7949V54.3862H78.1883V51.7996Z" fill="#9B9B9B"/>
<path d="M94.3109 51.7996H86.9141V54.3862H94.3109V51.7996Z" fill="#9B9B9B"/>
<path d="M78.1883 59.3083H50.7949V61.8934H78.1883V59.3083Z" fill="#9B9B9B"/>
<path d="M94.3109 59.3081H86.9141V61.8932H94.3109V59.3081Z" fill="#9B9B9B"/>
<path d="M78.1883 66.8184H50.7949V69.4026H78.1883V66.8184Z" fill="#9B9B9B"/>
<path d="M94.3109 66.8184H86.9141V69.4026H94.3109V66.8184Z" fill="#9B9B9B"/>
<path d="M78.1883 74.3274H50.7949V76.914H78.1883V74.3274Z" fill="#9B9B9B"/>
<path d="M94.3109 74.3269H86.9141V76.9135H94.3109V74.3269Z" fill="#9B9B9B"/>
<path d="M78.1883 81.8362H50.7949V84.4212H78.1883V81.8362Z" fill="#9B9B9B"/>
<path d="M94.3109 81.8362H86.9141V84.4212H94.3109V81.8362Z" fill="#9B9B9B"/>
<path d="M78.1883 89.3462H50.7949V91.9305H78.1883V89.3462Z" fill="#9B9B9B"/>
<path d="M94.3109 89.3459H86.9141V91.9302H94.3109V89.3459Z" fill="#9B9B9B"/>
<path d="M32.0491 105.574H13.8612C13.5856 105.574 13.3212 105.465 13.1263 105.27C12.9314 105.075 12.8223 104.811 12.8223 104.535C12.8223 104.259 12.9314 103.995 13.1263 103.8C13.3212 103.605 13.5856 103.496 13.8612 103.496H32.0491C32.3247 103.496 32.5891 103.605 32.784 103.8C32.9788 103.995 33.0884 104.259 33.0884 104.535C33.0884 104.811 32.9788 105.075 32.784 105.27C32.5891 105.465 32.3247 105.574 32.0491 105.574Z" fill="#9B9B9B"/>
<path d="M136.864 105.574H112.48C112.205 105.574 111.941 105.465 111.746 105.27C111.551 105.075 111.441 104.811 111.441 104.535C111.441 104.259 111.551 103.995 111.746 103.8C111.941 103.605 112.205 103.496 112.48 103.496H136.864C137.14 103.496 137.404 103.605 137.599 103.8C137.794 103.995 137.904 104.259 137.904 104.535C137.904 104.811 137.794 105.075 137.599 105.27C137.404 105.465 137.14 105.574 136.864 105.574Z" fill="#9B9B9B"/>
<path d="M91.4703 122.063H102.414C102.543 122.067 102.671 122.045 102.791 121.998C102.911 121.951 103.02 121.881 103.112 121.791C103.205 121.701 103.278 121.594 103.328 121.475C103.378 121.357 103.404 121.23 103.404 121.101C103.404 120.972 103.378 120.845 103.328 120.726C103.278 120.608 103.205 120.5 103.112 120.411C103.02 120.321 102.911 120.251 102.791 120.204C102.671 120.157 102.543 120.135 102.414 120.139H91.4703C91.3417 120.135 91.2138 120.157 91.0939 120.204C90.9739 120.251 90.8644 120.321 90.7721 120.411C90.6798 120.5 90.6064 120.608 90.5563 120.726C90.5062 120.845 90.4805 120.972 90.4805 121.101C90.4805 121.23 90.5062 121.357 90.5563 121.475C90.6064 121.594 90.6798 121.701 90.7721 121.791C90.8644 121.881 90.9739 121.951 91.0939 121.998C91.2138 122.045 91.3417 122.067 91.4703 122.063Z" fill="#9B9B9B"/>
<path d="M106.55 122.063H112.023C112.151 122.067 112.28 122.045 112.399 121.998C112.519 121.951 112.629 121.881 112.721 121.791C112.813 121.702 112.887 121.594 112.937 121.476C112.987 121.357 113.012 121.23 113.012 121.101C113.012 120.972 112.987 120.845 112.937 120.726C112.887 120.608 112.813 120.501 112.721 120.411C112.629 120.321 112.519 120.251 112.399 120.204C112.28 120.157 112.151 120.135 112.023 120.139H106.55C106.422 120.135 106.294 120.157 106.174 120.204C106.054 120.251 105.944 120.321 105.852 120.411C105.76 120.501 105.686 120.608 105.636 120.726C105.586 120.845 105.561 120.972 105.561 121.101C105.561 121.23 105.586 121.357 105.636 121.476C105.686 121.594 105.76 121.702 105.852 121.791C105.944 121.881 106.054 121.951 106.174 121.998C106.294 122.045 106.422 122.067 106.55 122.063Z" fill="#9B9B9B"/>
<path d="M38.6895 122.063H49.6338C49.7625 122.067 49.8904 122.045 50.0103 121.998C50.1303 121.951 50.2394 121.881 50.3317 121.791C50.424 121.702 50.4974 121.594 50.5475 121.476C50.5976 121.357 50.6237 121.23 50.6237 121.101C50.6237 120.972 50.5976 120.845 50.5475 120.726C50.4974 120.608 50.424 120.501 50.3317 120.411C50.2394 120.321 50.1303 120.251 50.0103 120.204C49.8904 120.157 49.7625 120.135 49.6338 120.139H38.6895C38.5608 120.135 38.4325 120.157 38.3126 120.204C38.1927 120.251 38.0835 120.321 37.9912 120.411C37.8989 120.501 37.8255 120.608 37.7754 120.726C37.7253 120.845 37.6992 120.972 37.6992 121.101C37.6992 121.23 37.7253 121.357 37.7754 121.476C37.8255 121.594 37.8989 121.702 37.9912 121.791C38.0835 121.881 38.1927 121.951 38.3126 121.998C38.4325 122.045 38.5608 122.067 38.6895 122.063Z" fill="#9B9B9B"/>
<path d="M53.7692 122.064H59.2436C59.4941 122.057 59.7318 121.952 59.9064 121.773C60.0811 121.593 60.1788 121.352 60.1788 121.102C60.1788 120.851 60.0811 120.611 59.9064 120.431C59.7318 120.251 59.4941 120.147 59.2436 120.14H53.7692C53.6405 120.136 53.5122 120.158 53.3923 120.205C53.2724 120.252 53.1632 120.322 53.0709 120.412C52.9786 120.501 52.9052 120.609 52.8551 120.727C52.805 120.846 52.7793 120.973 52.7793 121.102C52.7793 121.231 52.805 121.358 52.8551 121.476C52.9052 121.595 52.9786 121.702 53.0709 121.792C53.1632 121.882 53.2724 121.952 53.3923 121.999C53.5122 122.046 53.6405 122.068 53.7692 122.064Z" fill="#9B9B9B"/>
<path d="M101.74 125.36H107.214C107.47 125.36 107.714 125.259 107.895 125.078C108.076 124.897 108.177 124.652 108.177 124.397C108.177 124.142 108.076 123.897 107.895 123.716C107.714 123.535 107.47 123.434 107.214 123.434H101.74C101.485 123.434 101.24 123.535 101.059 123.716C100.879 123.897 100.777 124.142 100.777 124.397C100.777 124.652 100.879 124.897 101.059 125.078C101.24 125.259 101.485 125.36 101.74 125.36Z" fill="#9B9B9B"/>
<path d="M26.3394 28.9376H41.6266C41.7777 28.9415 41.9282 28.9152 42.069 28.8601C42.2099 28.8049 42.338 28.7222 42.4463 28.6166C42.5546 28.5111 42.6406 28.385 42.6994 28.2456C42.7582 28.1063 42.7888 27.9565 42.7888 27.8053C42.7888 27.6541 42.7582 27.5044 42.6994 27.3651C42.6406 27.2257 42.5546 27.0996 42.4463 26.9941C42.338 26.8885 42.2099 26.8058 42.069 26.7506C41.9282 26.6955 41.7777 26.6692 41.6266 26.6731H26.3417C25.9694 26.6731 25.6124 26.5252 25.3492 26.2619C25.0859 25.9987 24.938 25.6416 24.938 25.2693C24.938 24.897 25.0859 24.54 25.3492 24.2767C25.6124 24.0135 25.9694 23.8655 26.3417 23.8655H31.016C31.1645 23.8656 31.3115 23.8365 31.4487 23.7797C31.5859 23.723 31.7107 23.6398 31.8158 23.5348C31.9208 23.4298 32.0041 23.3052 32.061 23.168C32.1178 23.0308 32.147 22.8837 32.147 22.7352V21.4072C32.147 20.52 32.4993 19.6691 33.1267 19.0417C33.754 18.4144 34.6051 18.062 35.4923 18.062C36.3795 18.062 37.2302 18.4144 37.8576 19.0417C38.4849 19.6691 38.8376 20.52 38.8376 21.4072C38.8376 21.7076 38.9568 21.9957 39.1692 22.2081C39.3816 22.4205 39.6697 22.5398 39.9701 22.5398C40.2705 22.5398 40.5586 22.4205 40.771 22.2081C40.9834 21.9957 41.1026 21.7076 41.1026 21.4072C41.1026 19.9193 40.5114 18.4924 39.4593 17.4403C38.4072 16.3882 36.9806 15.7971 35.4927 15.7971C34.0048 15.7971 32.5778 16.3882 31.5257 17.4403C30.4736 18.4924 29.8824 19.9193 29.8824 21.4072V21.6019H26.3417C25.3689 21.6019 24.436 21.9884 23.7482 22.6762C23.0603 23.3641 22.6738 24.2969 22.6738 25.2697C22.6738 26.2425 23.0603 27.1755 23.7482 27.8633C24.436 28.5512 25.3689 28.9376 26.3417 28.9376H26.3394Z" fill="#9B9B9B"/>
<path d="M121.82 45.5822H106.537C106.236 45.5822 105.948 45.4629 105.736 45.2506C105.524 45.0382 105.404 44.7503 105.404 44.45C105.404 44.1497 105.524 43.8617 105.736 43.6494C105.948 43.4371 106.236 43.3178 106.537 43.3178H121.82C122.193 43.3178 122.55 43.1699 122.813 42.9066C123.076 42.6434 123.224 42.2863 123.224 41.914C123.224 41.5417 123.076 41.1847 122.813 40.9214C122.55 40.6582 122.193 40.5102 121.82 40.5102H117.147C116.847 40.5102 116.56 40.391 116.348 40.1789C116.135 39.9668 116.016 39.6792 116.016 39.3792V38.0504C116.016 37.1629 115.664 36.3118 115.036 35.6843C114.409 35.0568 113.558 34.7043 112.67 34.7043C111.783 34.7043 110.932 35.0568 110.304 35.6843C109.677 36.3118 109.324 37.1629 109.324 38.0504C109.316 38.3455 109.193 38.626 108.982 38.832C108.771 39.038 108.487 39.1534 108.192 39.1534C107.896 39.1534 107.613 39.038 107.401 38.832C107.19 38.626 107.067 38.3455 107.06 38.0504C107.06 36.5626 107.65 35.1357 108.702 34.0836C109.754 33.0316 111.182 32.4407 112.669 32.4407C114.157 32.4407 115.584 33.0316 116.636 34.0836C117.688 35.1357 118.279 36.5626 118.279 38.0504V38.245H121.82C122.794 38.245 123.727 38.6316 124.415 39.3199C125.104 40.0081 125.49 40.9415 125.49 41.9148C125.49 42.888 125.104 43.8215 124.415 44.5097C123.727 45.1979 122.794 45.5845 121.82 45.5845V45.5822Z" fill="#9B9B9B"/>
<path d="M118.463 89.9736C118.463 86.1038 121.573 78.6699 125.83 78.6699C130.086 78.6699 133.197 86.1038 133.197 89.9736C133.197 95.2797 127.653 95.2796 125.83 95.2796C124.006 95.2796 118.463 95.2797 118.463 89.9736ZM120.49 89.9736C120.49 91.6733 121.138 93.2547 125.83 93.2547C130.521 93.2547 131.17 91.6772 131.17 89.9736C131.17 86.6515 128.478 80.6964 125.83 80.6964C123.181 80.6964 120.493 86.6492 120.493 89.9736H120.49Z" fill="#9B9B9B"/>
<path d="M125.827 105.285C125.96 105.285 126.091 105.259 126.214 105.208C126.337 105.157 126.449 105.082 126.543 104.988C126.637 104.894 126.712 104.782 126.762 104.659C126.813 104.536 126.84 104.404 126.839 104.271V88.9191C126.843 88.7837 126.82 88.6489 126.77 88.5227C126.721 88.3965 126.647 88.2814 126.553 88.1843C126.458 88.0872 126.345 88.01 126.22 87.9573C126.096 87.9046 125.962 87.8774 125.826 87.8774C125.691 87.8774 125.556 87.9046 125.432 87.9573C125.307 88.01 125.194 88.0872 125.1 88.1843C125.005 88.2814 124.931 88.3965 124.882 88.5227C124.833 88.6489 124.809 88.7837 124.813 88.9191V104.271C124.813 104.404 124.839 104.536 124.89 104.659C124.941 104.782 125.015 104.894 125.109 104.988C125.204 105.082 125.315 105.157 125.438 105.208C125.561 105.259 125.693 105.285 125.827 105.285Z" fill="#9B9B9B"/>
<path d="M14.3691 91.585C14.3691 88.1226 17.1508 81.4714 20.9589 81.4714C24.7669 81.4714 27.5503 88.1226 27.5503 91.585C27.5503 96.3325 22.5902 96.3324 20.9589 96.3324C19.3276 96.3324 14.3691 96.3325 14.3691 91.585ZM16.1823 91.585C16.1823 93.1058 16.7617 94.5207 20.9589 94.5207C25.1561 94.5207 25.7371 93.1092 25.7371 91.585C25.7371 88.6127 23.3285 83.2846 20.9589 83.2846C18.5893 83.2846 16.1823 88.6106 16.1823 91.585Z" fill="#9B9B9B"/>
<path fill-rule="evenodd" clip-rule="evenodd" d="M69.668 23.6167L99.4267 35.6996V110.912H82.3802C81.7402 110.912 81.2213 110.393 81.2213 109.753C81.2213 109.113 81.7402 108.594 82.3802 108.594H97.1089V37.2601L71.9857 27.0593V36.4798C71.9857 37.1199 71.4669 37.6387 70.8268 37.6387C70.1868 37.6387 69.668 37.1199 69.668 36.4798V23.6167Z" fill="#F09108"/>
<path d="M20.9671 105.286C21.0863 105.286 21.204 105.262 21.3141 105.217C21.4242 105.171 21.5242 105.104 21.6084 105.02C21.6926 104.935 21.7597 104.835 21.8052 104.725C21.8507 104.615 21.8741 104.497 21.8741 104.378V90.6424C21.8774 90.5213 21.8563 90.4007 21.8123 90.2878C21.7682 90.1749 21.7021 90.0719 21.6175 89.985C21.533 89.8981 21.4318 89.8291 21.3202 89.7819C21.2085 89.7348 21.0887 89.7104 20.9675 89.7104C20.8463 89.7104 20.7261 89.7348 20.6144 89.7819C20.5028 89.8291 20.4019 89.8981 20.3174 89.985C20.2329 90.0719 20.1664 90.1749 20.1223 90.2878C20.0783 90.4007 20.0576 90.5213 20.0609 90.6424V104.378C20.0608 104.497 20.0839 104.615 20.1294 104.725C20.1749 104.835 20.2417 104.935 20.3258 105.02C20.41 105.104 20.5098 105.171 20.6198 105.216C20.7298 105.262 20.848 105.286 20.9671 105.286Z" fill="#9B9B9B"/>
</svg>
