<?xml version="1.0" encoding="utf-8"?>
<!-- Generator: Adobe Illustrator 16.0.0, SVG Export Plug-In . SVG Version: 6.00 Build 0)  -->
<!DOCTYPE svg PUBLIC "-//W3C//DTD SVG 1.1//EN" "http://www.w3.org/Graphics/SVG/1.1/DTD/svg11.dtd">
<svg version="1.1" id="Layer_1" xmlns="http://www.w3.org/2000/svg" xmlns:xlink="http://www.w3.org/1999/xlink" x="0px" y="0px"
	 width="150px" height="150px" viewBox="0 0 220 200" enable-background="new 0 0 220 200" xml:space="preserve">
<g>
	<rect x="104.233" y="133.312" fill="#FFF1E8" width="14.632" height="18.294"/>
	<path fill="#FFF1E8" d="M167.362,150.822H145V63.147h19.468c0,0,3.529,0.799,3.529,4.646
		C167.997,71.642,167.362,150.822,167.362,150.822z"/>
	<path fill="#FFF1E8" d="M53.591,150.822h22.361V63.147H56.482c0,0-3.527,0.799-3.527,4.646
		C52.955,71.642,53.591,150.822,53.591,150.822z"/>
	<path fill="#FFF1E8" d="M33.438,106.82c0,0-5.576,1.467-8.14,9.31c-2.562,7.843-1.264,12.151,8.14,12.151s10.874-6.37,7.835-12.054
		C38.237,110.545,35.666,107.667,33.438,106.82z"/>
	<path fill="#FFF1E8" d="M185.559,106.82c0,0-5.576,1.467-8.139,9.31c-2.564,7.843-1.269,12.151,8.137,12.151
		c9.404,0,10.873-6.37,7.837-12.054C190.355,110.545,187.784,107.667,185.559,106.82z"/>
	<g>
		<g>
			<g>
				<g>
					<path fill="#9B9B9B" d="M170.229,153.061h-31.762c-1.053,0-1.907-0.852-1.907-1.905c0-1.053,0.854-1.908,1.907-1.908h27.949
						V66.86c0-1.052-0.854-1.905-1.908-1.905h-19.407c-1.054,0-1.908-0.854-1.908-1.907c0-1.054,0.854-1.906,1.908-1.906h19.407
						c3.155,0,5.721,2.565,5.721,5.718V153.061z"/>
				</g>
			</g>
		</g>
		<g>
			<g>
				<g>
					<path fill="#9B9B9B" d="M84.891,153.061h-34.17V66.86c0-3.153,2.565-5.718,5.718-5.718h19.412c1.054,0,1.907,0.853,1.907,1.906
						c0,1.053-0.854,1.907-1.907,1.907H56.439c-1.05,0-1.904,0.854-1.904,1.905v82.388h30.356c1.054,0,1.906,0.854,1.906,1.908
						C86.797,152.209,85.945,153.061,84.891,153.061z"/>
				</g>
			</g>
		</g>
		<g>
			<path fill="#F09108" d="M147.005,153.061H73.945V49.146c0-4.225,3.436-7.661,7.657-7.661h57.744c4.225,0,7.659,3.436,7.659,7.661
				V153.061z M77.758,149.248h65.435V49.146c0-2.122-1.725-3.847-3.847-3.847H81.602c-2.119,0-3.844,1.725-3.844,3.847V149.248z"/>
		</g>
		<g>
			<rect x="152.682" y="75.128" fill="#9B9B9B" width="3.816" height="7.766"/>
		</g>
		<g>
			<g>
				<g>
					<rect x="152.682" y="92.672" fill="#9B9B9B" width="3.816" height="7.767"/>
				</g>
			</g>
		</g>
		<g>
			<g>
				<rect x="152.682" y="109.642" fill="#9B9B9B" width="3.816" height="7.767"/>
			</g>
		</g>
		<g>
			<g>
				<g>
					<rect x="152.682" y="130.351" fill="#9B9B9B" width="3.816" height="7.765"/>
				</g>
			</g>
		</g>
		<g>
			<g>
				<rect x="64.454" y="75.128" fill="#9B9B9B" width="3.812" height="7.766"/>
			</g>
		</g>
		<g>
			<g>
				<g>
					<rect x="64.454" y="92.672" fill="#9B9B9B" width="3.812" height="7.767"/>
				</g>
			</g>
		</g>
		<g>
			<g>
				<g>
					<rect x="64.454" y="109.642" fill="#9B9B9B" width="3.812" height="7.767"/>
				</g>
			</g>
		</g>
		<g>
			<g>
				<rect x="64.454" y="130.351" fill="#9B9B9B" width="3.812" height="7.765"/>
			</g>
		</g>
		<g>
			<g>
				<path fill="#F09108" d="M120.689,153.061h-18.77v-21.885h18.77V153.061z M105.731,149.248h11.145v-14.26h-11.145V149.248z"/>
			</g>
		</g>
		<g>
			<rect x="87.708" y="54.813" fill="#9B9B9B" width="45.886" height="3.814"/>
		</g>
		<g>
			<rect x="87.708" y="65.886" fill="#9B9B9B" width="45.886" height="3.814"/>
		</g>
		<g>
			<rect x="87.708" y="76.959" fill="#9B9B9B" width="45.886" height="3.812"/>
		</g>
		<g>
			<rect x="87.708" y="88.034" fill="#9B9B9B" width="45.886" height="3.811"/>
		</g>
		<g>
			<rect x="87.708" y="99.107" fill="#9B9B9B" width="45.886" height="3.814"/>
		</g>
		<g>
			<rect x="87.708" y="110.18" fill="#9B9B9B" width="45.886" height="3.812"/>
		</g>
		<g>
			<rect x="87.708" y="121.255" fill="#9B9B9B" width="45.886" height="3.811"/>
		</g>
		<g>
			<g>
				<g>
					<g>
						<path fill="#9B9B9B" d="M52.966,145.184H20.429c-0.847,0-1.533-0.685-1.533-1.532c0-0.848,0.687-1.533,1.533-1.533h32.537
							c0.847,0,1.534,0.686,1.534,1.533C54.5,144.499,53.813,145.184,52.966,145.184z"/>
					</g>
				</g>
			</g>
		</g>
		<g>
			<g>
				<path fill="#9B9B9B" d="M201.815,145.184h-32.542c-0.843,0-1.531-0.685-1.531-1.532c0-0.848,0.688-1.533,1.531-1.533h32.542
					c0.846,0,1.531,0.686,1.531,1.533C203.346,144.499,202.661,145.184,201.815,145.184z"/>
			</g>
		</g>
		<g>
			<g>
				<g>
					<g>
						<g>
							<path fill="#9B9B9B" d="M134.876,169.501h16.14c0.784,0,1.42-0.635,1.42-1.421c0-0.782-0.636-1.417-1.42-1.417h-16.14
								c-0.786,0-1.423,0.635-1.423,1.417C133.454,168.866,134.09,169.501,134.876,169.501z"/>
						</g>
					</g>
				</g>
			</g>
		</g>
		<g>
			<g>
				<g>
					<path fill="#9B9B9B" d="M157.119,169.501h8.071c0.784,0,1.418-0.635,1.418-1.421c0-0.782-0.634-1.417-1.418-1.417h-8.071
						c-0.784,0-1.419,0.635-1.419,1.417C155.7,168.866,156.334,169.501,157.119,169.501z"/>
				</g>
			</g>
		</g>
		<g>
			<g>
				<g>
					<path fill="#9B9B9B" d="M57.037,169.501h16.142c0.782,0,1.42-0.635,1.42-1.421c0-0.782-0.638-1.417-1.42-1.417H57.037
						c-0.785,0-1.421,0.635-1.421,1.417C55.616,168.866,56.251,169.501,57.037,169.501z"/>
				</g>
			</g>
		</g>
		<g>
			<g>
				<g>
					<g>
						<g>
							<path fill="#9B9B9B" d="M79.281,169.501h8.073c0.779,0,1.416-0.635,1.416-1.421c0-0.782-0.637-1.417-1.416-1.417h-8.073
								c-0.784,0-1.421,0.635-1.421,1.417C77.86,168.866,78.497,169.501,79.281,169.501z"/>
						</g>
					</g>
				</g>
			</g>
		</g>
		<g>
			<g>
				<g>
					<path fill="#9B9B9B" d="M150.034,174.364h8.068c0.784,0,1.422-0.638,1.422-1.423c0-0.781-0.638-1.417-1.422-1.417h-8.068
						c-0.785,0-1.421,0.636-1.421,1.417C148.613,173.726,149.249,174.364,150.034,174.364z"/>
				</g>
			</g>
		</g>
		<g>
			<g>
				<path fill="#9B9B9B" d="M22.064,86.648h22.537c0.925,0,1.67-0.746,1.67-1.67c0-0.923-0.745-1.67-1.67-1.67H22.064
					c-1.144,0-2.072-0.927-2.072-2.068c0-1.142,0.929-2.072,2.072-2.072h6.891c0.921,0,1.67-0.745,1.67-1.666v-1.958
					c0-2.72,2.213-4.932,4.932-4.932c2.724,0,4.933,2.212,4.933,4.932c0,0.921,0.749,1.667,1.67,1.667
					c0.925,0,1.67-0.746,1.67-1.667c0-4.562-3.711-8.272-8.272-8.272c-4.561,0-8.271,3.71-8.271,8.272v0.287h-5.221
					c-2.985,0-5.41,2.427-5.41,5.41C16.654,84.221,19.079,86.648,22.064,86.648z"/>
			</g>
		</g>
		<g>
			<g>
				<g>
					<g>
						<path fill="#9B9B9B" d="M184.081,45.015h-22.539c-0.923,0-1.668-0.749-1.668-1.67c0-0.923,0.745-1.67,1.668-1.67h22.539
							c1.139,0,2.068-0.928,2.068-2.068c0-1.144-0.93-2.072-2.068-2.072h-6.891c-0.925,0-1.67-0.747-1.67-1.668v-1.958
							c0-2.718-2.213-4.932-4.932-4.932c-2.725,0-4.936,2.214-4.936,4.932c0,0.923-0.746,1.668-1.667,1.668
							c-0.925,0-1.674-0.745-1.674-1.668c0-4.561,3.711-8.272,8.276-8.272c4.561,0,8.27,3.711,8.27,8.272v0.287h5.223
							c2.98,0,5.408,2.427,5.408,5.412C189.489,42.588,187.061,45.015,184.081,45.015z"/>
					</g>
				</g>
			</g>
		</g>
	</g>
	<g>
		<g>
			<g>
				<g>
					<path fill="#9B9B9B" d="M174.681,122.178c0-5.707,4.585-16.668,10.862-16.668c6.274,0,10.863,10.962,10.863,16.668
						c0,7.825-8.175,7.825-10.863,7.825C182.858,130.003,174.681,130.003,174.681,122.178z M177.67,122.178
						c0,2.512,0.955,4.838,7.873,4.838c6.92,0,7.874-2.327,7.874-4.838c0-4.903-3.968-13.68-7.874-13.68
						C181.638,108.499,177.67,117.275,177.67,122.178z"/>
				</g>
			</g>
		</g>
	</g>
	<g>
		<path fill="#9B9B9B" d="M185.543,144.76c0.828,0,1.492-0.67,1.492-1.497v-22.638c0-0.827-0.664-1.495-1.492-1.495
			c-0.826,0-1.494,0.667-1.494,1.495v22.638C184.049,144.09,184.717,144.76,185.543,144.76z"/>
	</g>
	<g>
		<path fill="#9B9B9B" d="M22.559,122.178c0-5.707,4.585-16.668,10.863-16.668s10.862,10.962,10.862,16.668
			c0,7.825-8.174,7.825-10.862,7.825S22.559,130.003,22.559,122.178z M25.548,122.178c0,2.512,0.956,4.838,7.874,4.838
			c6.922,0,7.874-2.327,7.874-4.838c0-4.903-3.969-13.68-7.874-13.68C29.516,108.499,25.548,117.275,25.548,122.178z"/>
	</g>
	<g>
		<path fill="#9B9B9B" d="M33.422,144.76c0.827,0,1.494-0.67,1.494-1.497v-22.638c0-0.827-0.667-1.495-1.494-1.495
			s-1.494,0.667-1.494,1.495v22.638C31.928,144.09,32.595,144.76,33.422,144.76z"/>
	</g>
</g>
</svg>
