<?xml version="1.0" encoding="utf-8"?>
<!-- Generator: Adobe Illustrator 16.0.0, SVG Export Plug-In . SVG Version: 6.00 Build 0)  -->
<!DOCTYPE svg PUBLIC "-//W3C//DTD SVG 1.1//EN" "http://www.w3.org/Graphics/SVG/1.1/DTD/svg11.dtd">
<svg version="1.1" id="Layer_1" xmlns="http://www.w3.org/2000/svg" xmlns:xlink="http://www.w3.org/1999/xlink" x="0px" y="0px"
	 width="150px" height="150px" viewBox="0 0 220 200" enable-background="new 0 0 220 200" xml:space="preserve">
<g>
	<path fill="#FFF1E8" d="M157.089,153.759h-22.361V66.084h19.468c0,0,3.529,0.799,3.529,4.646
		C157.725,74.579,157.089,153.759,157.089,153.759z"/>
	<g>
		<path fill="#9B9B9B" d="M159.578,155.998h-31.766c-1.053,0-1.905-0.852-1.905-1.905c0-1.053,0.853-1.908,1.905-1.908h27.949
			V69.797c0-1.052-0.854-1.905-1.904-1.905h-19.411c-1.054,0-1.908-0.854-1.908-1.907c0-1.054,0.854-1.906,1.908-1.906h19.411
			c3.153,0,5.721,2.565,5.721,5.718V155.998z"/>
	</g>
	<g>
		<g>
			<path fill="#9B9B9B" d="M64.71,148.121H32.026c-0.847,0-1.533-0.685-1.533-1.532c0-0.848,0.687-1.533,1.533-1.533H64.71
				c0.847,0,1.534,0.686,1.534,1.533C66.244,147.436,65.557,148.121,64.71,148.121z"/>
		</g>
	</g>
	<rect x="93.566" y="136.511" fill="#FFF1E8" width="14.244" height="17.248"/>
	<path fill="#FFF1E8" d="M44.977,109.757c0,0-5.575,1.467-8.14,9.31c-2.562,7.843-1.266,12.151,8.14,12.151
		c9.403,0,10.875-6.37,7.835-12.054C49.774,113.482,47.203,110.604,44.977,109.757z"/>
	<path fill="#FFF1E8" d="M177.154,109.757c0,0-5.578,1.467-8.14,9.31c-2.563,7.843-1.267,12.151,8.138,12.151
		c9.403,0,10.874-6.37,7.835-12.054C181.951,113.482,179.378,110.604,177.154,109.757z"/>
	<g>
		<path fill="#F09108" d="M136.353,155.998H63.292V52.083c0-4.225,3.436-7.661,7.659-7.661h57.743c4.223,0,7.658,3.436,7.658,7.661
			V155.998z M67.104,152.185h65.434V52.083c0-2.122-1.723-3.847-3.844-3.847H70.951c-2.12,0-3.847,1.725-3.847,3.847V152.185z"/>
	</g>
	<g>
		<rect x="142.031" y="78.065" fill="#9B9B9B" width="3.814" height="7.766"/>
	</g>
	<g>
		<g>
			<rect x="142.031" y="95.609" fill="#9B9B9B" width="3.814" height="7.767"/>
		</g>
	</g>
	<g>
		<g>
			<rect x="142.031" y="112.579" fill="#9B9B9B" width="3.814" height="7.767"/>
		</g>
	</g>
	<g>
		<rect x="142.031" y="133.288" fill="#9B9B9B" width="3.814" height="7.765"/>
	</g>
	<g>
		<g>
			<path fill="#F09108" d="M110.036,155.998H91.265v-21.885h18.771V155.998z M95.078,152.185h11.146v-14.26H95.078V152.185z"/>
		</g>
	</g>
	<g>
		<rect x="77.056" y="57.75" fill="#9B9B9B" width="45.886" height="3.814"/>
	</g>
	<g>
		<g>
			<rect x="77.056" y="68.823" fill="#9B9B9B" width="45.886" height="3.814"/>
		</g>
	</g>
	<g>
		<rect x="77.056" y="79.896" fill="#9B9B9B" width="45.886" height="3.812"/>
	</g>
	<g>
		<rect x="77.056" y="90.971" fill="#9B9B9B" width="45.886" height="3.811"/>
	</g>
	<g>
		<g>
			<rect x="77.056" y="102.043" fill="#9B9B9B" width="45.886" height="3.814"/>
		</g>
	</g>
	<g>
		<g>
			<rect x="77.056" y="113.117" fill="#9B9B9B" width="45.886" height="3.812"/>
		</g>
	</g>
	<g>
		<g>
			<rect x="77.056" y="124.191" fill="#9B9B9B" width="45.886" height="3.811"/>
		</g>
	</g>
	<g>
		<g>
			<path fill="#9B9B9B" d="M191.159,148.121H158.62c-0.845,0-1.531-0.685-1.531-1.532c0-0.848,0.687-1.533,1.531-1.533h32.539
				c0.847,0,1.534,0.686,1.534,1.533C192.693,147.436,192.006,148.121,191.159,148.121z"/>
		</g>
	</g>
	<g>
		<g>
			<g>
				<path fill="#9B9B9B" d="M124.224,172.438h16.14c0.784,0,1.42-0.635,1.42-1.421c0-0.782-0.636-1.417-1.42-1.417h-16.14
					c-0.786,0-1.423,0.635-1.423,1.417C122.801,171.803,123.438,172.438,124.224,172.438z"/>
			</g>
		</g>
	</g>
	<g>
		<g>
			<g>
				<path fill="#9B9B9B" d="M146.468,172.438h8.069c0.784,0,1.42-0.635,1.42-1.421c0-0.782-0.636-1.417-1.42-1.417h-8.069
					c-0.784,0-1.42,0.635-1.42,1.417C145.048,171.803,145.684,172.438,146.468,172.438z"/>
			</g>
		</g>
	</g>
	<g>
		<g>
			<g>
				<path fill="#9B9B9B" d="M46.385,172.438h16.139c0.784,0,1.42-0.635,1.42-1.421c0-0.782-0.636-1.417-1.42-1.417H46.385
					c-0.786,0-1.422,0.635-1.422,1.417C44.963,171.803,45.599,172.438,46.385,172.438z"/>
			</g>
		</g>
	</g>
	<g>
		<g>
			<g>
				<path fill="#9B9B9B" d="M68.626,172.438h8.072c0.783,0,1.421-0.635,1.421-1.421c0-0.782-0.638-1.417-1.421-1.417h-8.072
					c-0.784,0-1.419,0.635-1.419,1.417C67.207,171.803,67.842,172.438,68.626,172.438z"/>
			</g>
		</g>
	</g>
	<g>
		<g>
			<g>
				<path fill="#9B9B9B" d="M139.38,177.301h8.069c0.784,0,1.422-0.638,1.422-1.423c0-0.781-0.638-1.417-1.422-1.417h-8.069
					c-0.784,0-1.418,0.636-1.418,1.417C137.962,176.663,138.596,177.301,139.38,177.301z"/>
			</g>
		</g>
	</g>
	<g>
		<path fill="#9B9B9B" d="M34.099,125.115c0-5.707,4.586-16.668,10.862-16.668c6.278,0,10.867,10.962,10.867,16.668
			c0,7.825-8.179,7.825-10.867,7.825C42.276,132.94,34.099,132.94,34.099,125.115z M37.089,125.115c0,2.512,0.956,4.838,7.872,4.838
			c6.922,0,7.878-2.327,7.878-4.838c0-4.903-3.972-13.68-7.878-13.68C41.056,111.436,37.089,120.212,37.089,125.115z"/>
	</g>
	<g>
		<path fill="#9B9B9B" d="M44.961,147.697c0.829,0,1.494-0.67,1.494-1.497v-22.638c0-0.827-0.665-1.495-1.494-1.495
			c-0.827,0-1.492,0.667-1.492,1.495v22.638C43.469,147.027,44.134,147.697,44.961,147.697z"/>
	</g>
	<g>
		<path fill="#9B9B9B" d="M166.273,125.115c0-5.707,4.587-16.668,10.863-16.668c6.277,0,10.862,10.962,10.862,16.668
			c0,7.825-8.175,7.825-10.862,7.825C174.45,132.94,166.273,132.94,166.273,125.115z M169.263,125.115
			c0,2.512,0.956,4.838,7.874,4.838c6.922,0,7.875-2.327,7.875-4.838c0-4.903-3.97-13.68-7.875-13.68
			C173.23,111.436,169.263,120.212,169.263,125.115z"/>
	</g>
	<g>
		<path fill="#9B9B9B" d="M177.137,147.697c0.827,0,1.494-0.67,1.494-1.497v-22.638c0-0.827-0.667-1.495-1.494-1.495
			s-1.495,0.667-1.495,1.495v22.638C175.642,147.027,176.31,147.697,177.137,147.697z"/>
	</g>
	<g>
		<path fill="#9B9B9B" d="M60.65,29.648c-0.008,0-0.02,0-0.029,0c-0.587-0.012-1.118-0.361-1.348-0.901
			c-1.448-3.373-7.254-2.256-7.311-2.245c-0.81,0.155-1.594-0.363-1.758-1.171s0.355-1.596,1.165-1.758
			c0.286-0.059,6.089-1.19,9.28,1.963c1.486-1.636,3.989-3.192,7.468-2.765c0.817,0.104,1.399,0.851,1.298,1.668
			c-0.104,0.819-0.837,1.391-1.668,1.299c-4.002-0.488-5.678,2.906-5.744,3.05C61.755,29.311,61.228,29.648,60.65,29.648z"/>
	</g>
	<g>
		<path fill="#9B9B9B" d="M37.001,46.274c-0.1,0-0.196-0.009-0.298-0.029c-0.484-0.1-0.892-0.43-1.083-0.89
			c-1.688-4.063-6.22-2.833-6.413-2.778c-0.792,0.228-1.619-0.236-1.844-1.032c-0.224-0.794,0.238-1.619,1.032-1.844
			c2.209-0.626,6.585-0.677,9.072,2.841c1.727-1.11,4.768-2.414,8.367-1.114c0.774,0.282,1.179,1.14,0.897,1.916
			c-0.279,0.773-1.132,1.183-1.914,0.896c-3.706-1.339-6.643,1.484-6.768,1.605C37.77,46.122,37.39,46.274,37.001,46.274z"/>
	</g>
</g>
</svg>
