<svg width="150" height="150" viewBox="0 0 150 150" fill="none" xmlns="http://www.w3.org/2000/svg">
<path d="M45.5342 102.856H13.5582C13.2776 102.856 13.0084 102.744 12.81 102.546C12.6115 102.347 12.5 102.078 12.5 101.798C12.5 101.517 12.6115 101.248 12.81 101.049C13.0084 100.851 13.2776 100.739 13.5582 100.739H45.5342C45.8149 100.739 46.084 100.851 46.2825 101.049C46.481 101.248 46.5925 101.517 46.5925 101.798C46.5925 102.078 46.481 102.347 46.2825 102.546C46.084 102.744 45.8149 102.856 45.5342 102.856Z" fill="#9B9B9B"/>
<path d="M104.466 102.856H136.442C136.723 102.856 136.992 102.745 137.191 102.546C137.389 102.348 137.501 102.079 137.501 101.798C137.501 101.517 137.389 101.248 137.191 101.05C136.992 100.851 136.723 100.74 136.442 100.74H104.466C104.186 100.74 103.917 100.851 103.718 101.05C103.52 101.248 103.408 101.517 103.408 101.798C103.408 102.079 103.52 102.348 103.718 102.546C103.917 102.745 104.186 102.856 104.466 102.856Z" fill="#9B9B9B"/>
<path d="M27.5028 77.1079C27.5028 77.1079 23.764 78.091 22.0444 83.3516C20.3247 88.6121 21.1978 91.5001 27.5007 91.5001C33.8036 91.5001 34.7941 87.228 32.757 83.4162C30.7199 79.6044 28.996 77.6762 27.5028 77.1079Z" fill="#FFF1E8"/>
<path d="M122.51 77.1079C122.51 77.1079 118.769 78.091 117.051 83.3516C115.334 88.6121 116.205 91.5001 122.508 91.5001C128.81 91.5001 129.8 87.228 127.764 83.4162C125.728 79.6044 124.003 77.6762 122.51 77.1079Z" fill="#FFF1E8"/>
<path d="M57.8554 112.036H46.4624C46.1957 112.036 45.94 111.93 45.7515 111.742C45.5629 111.553 45.457 111.297 45.457 111.031C45.457 110.764 45.5629 110.508 45.7515 110.32C45.94 110.131 46.1957 110.025 46.4624 110.025H57.8554C58.1221 110.025 58.3778 110.131 58.5663 110.32C58.7548 110.508 58.8608 110.764 58.8608 111.031C58.8608 111.297 58.7548 111.553 58.5663 111.742C58.3778 111.93 58.1221 112.036 57.8554 112.036Z" fill="#9B9B9B"/>
<path d="M42.1561 112.036H36.4585C36.1918 112.036 35.9361 111.93 35.7476 111.742C35.559 111.553 35.4531 111.297 35.4531 111.031C35.4531 110.764 35.559 110.508 35.7476 110.32C35.9361 110.131 36.1918 110.025 36.4585 110.025H42.1561C42.4227 110.025 42.6784 110.131 42.8669 110.32C43.0555 110.508 43.1614 110.764 43.1614 111.031C43.1614 111.297 43.0555 111.553 42.8669 111.742C42.6784 111.93 42.4227 112.036 42.1561 112.036Z" fill="#9B9B9B"/>
<path d="M114.811 112.036H103.416C103.149 112.036 102.893 111.93 102.705 111.742C102.516 111.553 102.41 111.297 102.41 111.031C102.41 110.764 102.516 110.508 102.705 110.32C102.893 110.131 103.149 110.025 103.416 110.025H114.811C115.077 110.025 115.333 110.131 115.522 110.32C115.71 110.508 115.816 110.764 115.816 111.031C115.816 111.297 115.71 111.553 115.522 111.742C115.333 111.93 115.077 112.036 114.811 112.036Z" fill="#9B9B9B"/>
<path d="M99.1062 112.036H93.4096C93.143 112.036 92.8873 111.93 92.6987 111.742C92.5102 111.553 92.4043 111.297 92.4043 111.031C92.4043 110.764 92.5102 110.508 92.6987 110.32C92.8873 110.131 93.143 110.025 93.4096 110.025H99.1062C99.3728 110.025 99.6285 110.131 99.817 110.32C100.006 110.508 100.111 110.764 100.111 111.031C100.111 111.297 100.006 111.553 99.817 111.742C99.6285 111.93 99.3728 112.036 99.1062 112.036Z" fill="#9B9B9B"/>
<path d="M47.1596 115.469H41.4631C41.1973 115.469 40.9424 115.364 40.7545 115.176C40.5665 114.988 40.4609 114.733 40.4609 114.467C40.4609 114.201 40.5665 113.946 40.7545 113.758C40.9424 113.57 41.1973 113.465 41.4631 113.465H47.1596C47.4254 113.465 47.6803 113.57 47.8683 113.758C48.0562 113.946 48.1618 114.201 48.1618 114.467C48.1618 114.733 48.0562 114.988 47.8683 115.176C47.6803 115.364 47.4254 115.469 47.1596 115.469Z" fill="#9B9B9B"/>
<path d="M102.984 50.3448H102.961C102.768 50.3424 102.58 50.2842 102.42 50.1772C102.259 50.0701 102.133 49.9189 102.057 49.7417C101.085 47.4792 97.1887 48.2294 97.1527 48.2358C96.895 48.2817 96.6295 48.225 96.413 48.0777C96.1965 47.9304 96.0463 47.7043 95.9945 47.4476C95.9426 47.191 95.9933 46.9243 96.1356 46.7045C96.2779 46.4848 96.5005 46.3294 96.7559 46.2716C96.9474 46.2325 100.84 45.4738 102.979 47.5871C103.598 46.8907 104.379 46.3574 105.253 46.0344C106.126 45.7114 107.066 45.6087 107.989 45.7352C108.249 45.7728 108.483 45.9108 108.642 46.1195C108.802 46.3282 108.872 46.5909 108.84 46.8513C108.807 47.1117 108.674 47.3489 108.468 47.512C108.263 47.6751 108.001 47.751 107.74 47.7236C106.966 47.6264 106.18 47.7708 105.491 48.1369C104.801 48.503 104.242 49.0731 103.888 49.7692C103.807 49.9405 103.679 50.0853 103.519 50.1871C103.359 50.2889 103.173 50.3436 102.984 50.3448Z" fill="#9B9B9B"/>
<path d="M27.5048 92.6545C25.7057 92.6545 20.2188 92.6545 20.2188 87.4066C20.2188 83.58 23.2951 76.2295 27.5048 76.2295C31.7145 76.2295 34.7887 83.5811 34.7887 87.4066C34.7866 92.6545 29.3048 92.6545 27.5048 92.6545ZM27.5048 78.2338C24.8856 78.2338 22.222 84.1197 22.222 87.4066C22.222 89.0924 22.8633 90.6513 27.5048 90.6513C32.1462 90.6513 32.7844 89.0914 32.7844 87.4066C32.7844 84.1197 30.1218 78.2338 27.5048 78.2338Z" fill="#9B9B9B"/>
<path d="M27.5021 102.551C27.3705 102.551 27.2401 102.525 27.1184 102.475C26.9967 102.424 26.8862 102.351 26.7931 102.257C26.7001 102.164 26.6263 102.054 26.576 101.932C26.5257 101.81 26.4999 101.68 26.5 101.548V86.3654C26.5 86.0996 26.6056 85.8447 26.7935 85.6568C26.9815 85.4688 27.2364 85.3633 27.5021 85.3633C27.7679 85.3633 28.0228 85.4688 28.2108 85.6568C28.3987 85.8447 28.5043 86.0996 28.5043 86.3654V101.548C28.5045 101.68 28.4786 101.81 28.4283 101.932C28.378 102.054 28.3042 102.164 28.2112 102.257C28.1181 102.351 28.0076 102.424 27.8859 102.475C27.7643 102.525 27.6338 102.551 27.5021 102.551Z" fill="#9B9B9B"/>
<path d="M129.59 39.7646H116.056C115.789 39.7646 115.534 39.6587 115.345 39.4702C115.157 39.2817 115.051 39.026 115.051 38.7593C115.051 38.4927 115.157 38.237 115.345 38.0484C115.534 37.8599 115.789 37.754 116.056 37.754H129.59C129.92 37.754 130.236 37.6231 130.469 37.3901C130.702 37.1571 130.832 36.8411 130.832 36.5116C130.832 36.1821 130.702 35.8661 130.469 35.6331C130.236 35.4001 129.92 35.2692 129.59 35.2692H125.451C125.185 35.2692 124.931 35.1636 124.743 34.9757C124.555 34.7878 124.449 34.5328 124.449 34.267V33.0924C124.449 32.7033 124.372 32.318 124.224 31.9585C124.075 31.599 123.856 31.2723 123.581 30.9972C123.306 30.722 122.979 30.5038 122.62 30.3548C122.26 30.2059 121.875 30.1293 121.486 30.1293C121.097 30.1293 120.712 30.2059 120.352 30.3548C119.993 30.5038 119.666 30.722 119.391 30.9972C119.116 31.2723 118.897 31.599 118.748 31.9585C118.6 32.318 118.523 32.7033 118.523 33.0924C118.523 33.3582 118.417 33.6131 118.229 33.801C118.041 33.9889 117.787 34.0946 117.521 34.0946C117.255 34.0946 117 33.9889 116.812 33.801C116.624 33.6131 116.519 33.3582 116.519 33.0924C116.519 31.7749 117.042 30.5115 117.973 29.5799C118.905 28.6483 120.169 28.125 121.486 28.125C122.803 28.125 124.067 28.6483 124.998 29.5799C125.93 30.5115 126.453 31.7749 126.453 33.0924V33.2649H129.588C130.449 33.2649 131.275 33.607 131.884 34.2161C132.493 34.8252 132.836 35.6513 132.836 36.5126C132.836 37.374 132.493 38.2001 131.884 38.8091C131.275 39.4182 130.449 39.7604 129.588 39.7604L129.59 39.7646Z" fill="#9B9B9B"/>
<path d="M28.0643 45.6831H41.5982C41.8648 45.6831 42.1205 45.5772 42.3091 45.3887C42.4976 45.2001 42.6035 44.9444 42.6035 44.6778C42.6035 44.4112 42.4976 44.1554 42.3091 43.9669C42.1205 43.7784 41.8648 43.6724 41.5982 43.6724H28.0643C27.7348 43.6724 27.4188 43.5415 27.1858 43.3085C26.9528 43.0755 26.8219 42.7595 26.8219 42.43C26.8219 42.1005 26.9528 41.7845 27.1858 41.5516C27.4188 41.3186 27.7348 41.1877 28.0643 41.1877H32.2031C32.4689 41.1877 32.7238 41.0821 32.9117 40.8942C33.0996 40.7062 33.2052 40.4513 33.2052 40.1855V39.0108C33.2052 38.6217 33.2819 38.2364 33.4308 37.877C33.5797 37.5175 33.798 37.1908 34.0731 36.9157C34.3483 36.6405 34.6749 36.4222 35.0344 36.2733C35.3939 36.1244 35.7792 36.0478 36.1683 36.0478C36.5574 36.0478 36.9427 36.1244 37.3022 36.2733C37.6617 36.4222 37.9884 36.6405 38.2635 36.9157C38.5387 37.1908 38.7569 37.5175 38.9059 37.877C39.0548 38.2364 39.1314 38.6217 39.1314 39.0108C39.1314 39.2766 39.237 39.5315 39.4249 39.7195C39.6129 39.9074 39.8678 40.013 40.1336 40.013C40.3994 40.013 40.6543 39.9074 40.8422 39.7195C41.0301 39.5315 41.1357 39.2766 41.1357 39.0108C41.1357 37.6934 40.6124 36.4299 39.6808 35.4984C38.7492 34.5668 37.4858 34.0435 36.1683 34.0435C34.8509 34.0435 33.5874 34.5668 32.6558 35.4984C31.7243 36.4299 31.2009 37.6934 31.2009 39.0108V39.1834H28.0664C27.205 39.1834 26.3789 39.5255 25.7699 40.1346C25.1608 40.7436 24.8187 41.5697 24.8187 42.4311C24.8187 43.2924 25.1608 44.1185 25.7699 44.7276C26.3789 45.3367 27.205 45.6789 28.0664 45.6789L28.0643 45.6831Z" fill="#9B9B9B"/>
<path d="M115.213 87.4066C115.213 83.58 118.287 76.2295 122.497 76.2295C126.707 76.2295 129.783 83.5811 129.783 87.4066C129.783 92.6545 124.3 92.6545 122.497 92.6545C120.694 92.6545 115.213 92.6545 115.213 87.4066ZM117.217 87.4066C117.217 89.0924 117.857 90.6513 122.497 90.6513C127.136 90.6513 127.78 89.0914 127.78 87.4066C127.78 84.1187 125.116 78.2338 122.497 78.2338C119.878 78.2338 117.217 84.1197 117.217 87.4066Z" fill="#9B9B9B"/>
<path d="M122.496 102.551C122.628 102.551 122.758 102.525 122.88 102.475C123.002 102.424 123.112 102.351 123.205 102.257C123.298 102.164 123.372 102.054 123.422 101.932C123.473 101.81 123.499 101.68 123.498 101.548V86.3654C123.498 86.0996 123.393 85.8447 123.205 85.6568C123.017 85.4688 122.762 85.3633 122.496 85.3633C122.231 85.3633 121.976 85.4688 121.788 85.6568C121.6 85.8447 121.494 86.0996 121.494 86.3654V101.548C121.494 101.68 121.52 101.81 121.57 101.932C121.62 102.054 121.694 102.164 121.787 102.257C121.88 102.351 121.991 102.424 122.113 102.475C122.234 102.525 122.365 102.551 122.496 102.551Z" fill="#9B9B9B"/>
<path fill-rule="evenodd" clip-rule="evenodd" d="M104.699 63.5518H45.457V74.6921H47.3125V105.146H102.41V74.6921H104.699V63.5518Z" fill="white"/>
<rect x="66.8574" y="63.5518" width="14.459" height="41.594" fill="#FFF1E8"/>
<path d="M46.8399 74.9424V74.9424C45.443 74.9424 44.3105 73.81 44.3105 72.413L44.3105 66.3412C44.3105 64.6843 45.6537 63.3412 47.3105 63.3412H66.8807M46.8399 74.9424V102.146C46.8399 103.803 48.1831 105.146 49.8399 105.146H66.8807M46.8399 74.9424H66.8807M102.033 74.9424V74.9424C103.506 74.9424 104.699 73.7488 104.699 72.2764V66.3412C104.699 64.6843 103.356 63.3412 101.699 63.3412H81.468M102.033 74.9424V102.146C102.033 103.803 100.69 105.146 99.0332 105.146H81.468M102.033 74.9424H81.468M66.8807 63.3412L66.8807 74.9424M66.8807 63.3412H74.5312M66.8807 74.9424L66.8807 105.146M66.8807 74.9424H81.468M66.8807 105.146H81.468M81.468 105.146V74.9424M81.468 74.9424V63.3412M81.468 63.3412H74.5312M74.5312 63.3412C77.815 62.6586 88.816 60.2096 89.3851 57.317C90.4385 51.9622 87.9492 48.6025 83.6392 48.6025C79.3293 48.6025 78.3174 51.9479 77.5128 53.8665C76.8692 55.4014 75.2569 60.8225 74.5312 63.3412ZM74.5312 63.3412C73.7715 60.7813 73.016 55.3024 72.3228 53.8665C71.4563 52.0716 68.2452 48.6025 64.0077 48.6025C59.3705 48.6025 58.2403 53.8665 61.2094 57.317C63.0414 59.446 71.2958 62.4729 74.5312 63.3412Z" stroke="#FB9600" stroke-width="3"/>
</svg>
