<?xml version="1.0" encoding="utf-8"?>
<!-- Generator: Adobe Illustrator 16.0.0, SVG Export Plug-In . SVG Version: 6.00 Build 0)  -->
<!DOCTYPE svg PUBLIC "-//W3C//DTD SVG 1.1//EN" "http://www.w3.org/Graphics/SVG/1.1/DTD/svg11.dtd">
<svg version="1.1" id="Layer_1" xmlns="http://www.w3.org/2000/svg" xmlns:xlink="http://www.w3.org/1999/xlink" x="0px" y="0px"
	 width="150px" height="150px" viewBox="0 0 220 220" enable-background="new 0 0 220 220" xml:space="preserve">
<g>
	<path fill="#FFF1E8" d="M39.176,113.14c0,0-5.576,1.467-8.138,9.31s-1.268,12.151,8.137,12.151s10.875-6.37,7.836-12.054
		C43.974,116.865,41.402,113.987,39.176,113.14z"/>
	<path fill="#FFF1E8" d="M180.841,113.14c0,0-5.577,1.467-8.14,9.31s-1.267,12.151,8.138,12.151s10.873-6.37,7.837-12.054
		C185.637,116.865,183.066,113.987,180.841,113.14z"/>
	<rect x="77.586" y="110.69" fill="#FFF1E8" width="13.523" height="13.385"/>
	<rect x="128.359" y="110.69" fill="#FFF1E8" width="13.523" height="13.385"/>
	<rect x="99.353" y="119.847" fill="#FFF1E8" width="21.157" height="34.379"/>
	<g>
		<g>
			<path fill="#F09108" d="M162.887,109.081c-0.401,0-0.803-0.152-1.106-0.457l-52.096-46.75l-52.094,46.75
				c-0.616,0.611-1.615,0.609-2.229-0.008c-0.611-0.619-0.609-1.616,0.012-2.23l53.201-47.848c0.613-0.609,1.605-0.609,2.219,0
				l53.204,47.848c0.618,0.614,0.622,1.611,0.009,2.23C163.699,108.924,163.292,109.081,162.887,109.081z"/>
		</g>
		<g>
			<path fill="#F09108" d="M149.364,96.4c-0.825,0-1.496-0.668-1.496-1.495V73.749h-8.719v9.536c0,0.826-0.667,1.495-1.493,1.495
				c-0.824,0-1.496-0.668-1.496-1.495V72.256c0-0.826,0.672-1.494,1.496-1.494h11.708c0.826,0,1.495,0.667,1.495,1.494v22.649
				C150.859,95.732,150.19,96.4,149.364,96.4z"/>
		</g>
		<g>
			<path fill="#9B9B9B" d="M84.438,165.224H67.448c-0.826,0-1.493-0.669-1.493-1.495c0-0.824,0.667-1.495,1.493-1.495h16.989
				c0.827,0,1.494,0.67,1.494,1.495C85.932,164.555,85.265,165.224,84.438,165.224z"/>
		</g>
		<g>
			<path fill="#9B9B9B" d="M61.023,165.224h-8.495c-0.826,0-1.492-0.669-1.492-1.495c0-0.824,0.666-1.495,1.492-1.495h8.495
				c0.826,0,1.495,0.67,1.495,1.495C62.519,164.555,61.85,165.224,61.023,165.224z"/>
		</g>
		<g>
			<path fill="#9B9B9B" d="M169.361,165.224h-16.99c-0.825,0-1.492-0.669-1.492-1.495c0-0.824,0.667-1.495,1.492-1.495h16.99
				c0.825,0,1.493,0.67,1.493,1.495C170.854,164.555,170.187,165.224,169.361,165.224z"/>
		</g>
		<g>
			<path fill="#9B9B9B" d="M145.946,165.224h-8.494c-0.825,0-1.494-0.669-1.494-1.495c0-0.824,0.669-1.495,1.494-1.495h8.494
				c0.827,0,1.495,0.67,1.495,1.495C147.441,164.555,146.773,165.224,145.946,165.224z"/>
		</g>
		<g>
			<path fill="#9B9B9B" d="M68.486,170.341H59.99c-0.826,0-1.494-0.667-1.494-1.494c0-0.825,0.668-1.494,1.494-1.494h8.496
				c0.824,0,1.493,0.668,1.493,1.494C69.979,169.674,69.311,170.341,68.486,170.341z"/>
		</g>
		<g>
			<path fill="#9B9B9B" d="M67.852,56.605c-0.009,0-0.019,0-0.028,0c-0.588-0.011-1.115-0.36-1.347-0.9
				c-1.449-3.373-7.253-2.255-7.312-2.246c-0.808,0.156-1.595-0.363-1.758-1.17c-0.162-0.808,0.355-1.596,1.166-1.758
				c0.286-0.059,6.089-1.19,9.279,1.962c1.488-1.635,3.99-3.191,7.471-2.762c0.816,0.102,1.397,0.849,1.296,1.667
				c-0.104,0.818-0.838,1.392-1.668,1.298c-4.001-0.489-5.677,2.906-5.743,3.05C68.958,56.269,68.431,56.605,67.852,56.605z"/>
		</g>
		<g>
			<path fill="#9B9B9B" d="M44.203,73.234c-0.098,0-0.197-0.011-0.298-0.031c-0.483-0.1-0.892-0.43-1.083-0.89
				c-1.688-4.063-6.221-2.833-6.413-2.778c-0.792,0.229-1.618-0.235-1.842-1.032c-0.225-0.792,0.236-1.62,1.03-1.843
				c2.208-0.629,6.584-0.678,9.072,2.839c1.727-1.11,4.768-2.413,8.366-1.113c0.776,0.281,1.179,1.138,0.898,1.915
				c-0.278,0.774-1.131,1.185-1.913,0.896c-3.707-1.339-6.646,1.486-6.768,1.607C44.972,73.082,44.592,73.234,44.203,73.234z"/>
		</g>
		<g>
			<path fill="#9B9B9B" d="M39.176,136.323c-2.688,0-10.864,0-10.864-7.825c0-5.707,4.587-16.668,10.864-16.668
				c6.276,0,10.863,10.962,10.863,16.668C50.039,136.323,41.862,136.323,39.176,136.323z M39.176,114.818
				c-3.905,0-7.876,8.777-7.876,13.68c0,2.512,0.956,4.838,7.876,4.838c6.917,0,7.873-2.327,7.873-4.838
				C47.049,123.595,43.081,114.818,39.176,114.818z"/>
		</g>
		<g>
			<path fill="#9B9B9B" d="M39.176,151.08c-0.826,0-1.495-0.67-1.495-1.497v-22.638c0-0.827,0.669-1.495,1.495-1.495
				c0.827,0,1.494,0.667,1.494,1.495v22.638C40.67,150.41,40.003,151.08,39.176,151.08z"/>
		</g>
		<g>
			<path fill="#F09108" d="M119.963,155.564H99.274c-0.823,0-1.492-0.667-1.492-1.494v-34.611c0-0.826,0.669-1.496,1.492-1.496
				h20.688c0.828,0,1.495,0.669,1.495,1.496v34.611C121.458,154.897,120.791,155.564,119.963,155.564z M100.771,152.576h17.699
				v-31.623h-17.699V152.576z"/>
		</g>
		<g>
			<path fill="#F09108" d="M90.948,125.814H77.546c-0.826,0-1.493-0.668-1.493-1.495v-13.401c0-0.825,0.667-1.495,1.493-1.495
				h13.402c0.825,0,1.494,0.669,1.494,1.495v13.401C92.442,125.146,91.773,125.814,90.948,125.814z M79.041,122.825h10.412v-10.412
				H79.041V122.825z"/>
		</g>
		<g>
			<path fill="#F09108" d="M141.822,125.814H128.42c-0.825,0-1.494-0.668-1.494-1.495v-13.401c0-0.825,0.669-1.495,1.494-1.495
				h13.402c0.826,0,1.494,0.669,1.494,1.495v13.401C143.316,125.146,142.648,125.814,141.822,125.814z M129.916,122.825h10.411
				v-10.412h-10.411V122.825z"/>
		</g>
		<g>
			<path fill="#F09108" d="M109.622,154.083c-0.825,0-1.494-0.669-1.494-1.496v-33.127c0-0.826,0.669-1.496,1.494-1.496
				c0.826,0,1.495,0.669,1.495,1.496v33.127C111.117,153.414,110.448,154.083,109.622,154.083z"/>
		</g>
		<g>
			<path fill="#9B9B9B" d="M191.398,75.006h-20.18c-0.825,0-1.492-0.669-1.492-1.495s0.667-1.497,1.492-1.497h20.18
				c1.021,0,1.852-0.829,1.852-1.849c0-1.022-0.83-1.855-1.852-1.855h-6.17c-0.825,0-1.494-0.669-1.494-1.495v-1.752
				c0-2.435-1.982-4.417-4.417-4.417c-2.437,0-4.418,1.982-4.418,4.417c0,0.826-0.669,1.493-1.493,1.493
				c-0.826,0-1.495-0.667-1.495-1.493c0-4.083,3.322-7.404,7.406-7.404c4.083,0,7.406,3.321,7.406,7.404v0.258h4.675
				c2.67,0,4.841,2.171,4.841,4.844C196.239,72.834,194.068,75.006,191.398,75.006z"/>
		</g>
		<g>
			<g>
				<g>
					<path fill="#F09108" d="M145.396,155.991H73.973c-5.334,0-9.674-4.339-9.674-9.675V98.852h3.527v47.464
						c0,3.39,2.758,6.147,6.146,6.147h71.424c3.388,0,6.145-2.758,6.145-6.147V98.852h3.527v47.464
						C155.068,151.652,150.729,155.991,145.396,155.991z"/>
				</g>
			</g>
		</g>
		<g>
			<path fill="#9B9B9B" d="M66.062,151.535H18.383c-0.871,0-1.579-0.708-1.579-1.578c0-0.872,0.708-1.579,1.579-1.579h47.679
				c0.873,0,1.578,0.707,1.578,1.579C67.641,150.827,66.936,151.535,66.062,151.535z"/>
		</g>
		<g>
			<path fill="#9B9B9B" d="M169.961,128.498c0-5.707,4.586-16.668,10.862-16.668c6.278,0,10.864,10.962,10.864,16.668
				c0,7.825-8.176,7.825-10.864,7.825C178.137,136.323,169.961,136.323,169.961,128.498z M172.95,128.498
				c0,2.512,0.955,4.838,7.873,4.838c6.921,0,7.878-2.327,7.878-4.838c0-4.903-3.973-13.68-7.878-13.68
				C176.917,114.818,172.95,123.595,172.95,128.498z"/>
		</g>
		<g>
			<path fill="#9B9B9B" d="M180.823,151.08c0.827,0,1.494-0.67,1.494-1.497v-22.638c0-0.827-0.667-1.495-1.494-1.495
				s-1.494,0.667-1.494,1.495v22.638C179.329,150.41,179.996,151.08,180.823,151.08z"/>
		</g>
		<g>
			<path fill="#9B9B9B" d="M153.938,151.535h47.68c0.87,0,1.578-0.708,1.578-1.578c0-0.872-0.708-1.579-1.578-1.579h-47.68
				c-0.872,0-1.579,0.707-1.579,1.579C152.358,150.827,153.065,151.535,153.938,151.535z"/>
		</g>
	</g>
</g>
</svg>
