<svg width="360" height="360" viewBox="0 0 360 360" fill="none" xmlns="http://www.w3.org/2000/svg">
<path d="M11.1492 130.337H52.6188C53.4338 130.337 54.2156 130.033 54.7919 129.491C55.3682 128.949 55.6913 128.213 55.6913 127.446C55.6913 126.679 55.3682 125.944 54.7919 125.401C54.2156 124.859 53.4338 124.555 52.6188 124.555H11.1492C10.1393 124.555 9.17132 124.177 8.45721 123.505C7.74309 122.833 7.34161 121.921 7.34161 120.971C7.34161 120.021 7.74309 119.11 8.45721 118.438C9.17132 117.766 10.1393 117.388 11.1492 117.388H23.8284C24.2316 117.388 24.6308 117.314 25.0033 117.168C25.3758 117.023 25.714 116.81 25.999 116.542C26.2841 116.273 26.5096 115.954 26.6637 115.603C26.8178 115.253 26.8975 114.877 26.8972 114.498V111.108C26.8972 108.843 27.8536 106.669 29.5558 105.067C31.2581 103.466 33.5665 102.566 35.9739 102.566C38.3812 102.566 40.6897 103.466 42.3919 105.067C44.0942 106.669 45.0506 108.843 45.0506 111.108C45.0506 111.875 45.3752 112.61 45.9512 113.152C46.5272 113.694 47.3084 113.998 48.1231 113.998C48.9377 113.998 49.7189 113.694 50.295 113.152C50.871 112.61 51.1944 111.875 51.1944 111.108C51.1427 107.341 49.5165 103.745 46.6677 101.099C43.819 98.4523 39.9769 96.9692 35.9739 96.9692C31.9709 96.9692 28.1287 98.4523 25.28 101.099C22.4313 103.745 20.805 107.341 20.7534 111.108V111.606H11.1393C9.819 111.586 8.50824 111.812 7.28231 112.274C6.05639 112.736 4.93968 113.423 3.99855 114.294C3.05741 115.166 2.30967 116.205 1.79949 117.351C1.2893 118.497 1.02734 119.727 1.02734 120.97C1.02734 122.212 1.2893 123.443 1.79949 124.589C2.30967 125.735 3.05741 126.775 3.99855 127.646C4.93968 128.518 6.05639 129.204 7.28231 129.665C8.50824 130.127 9.819 130.355 11.1393 130.335L11.1492 130.337Z" fill="#E7E7E7"/>
<path d="M348.332 72.6063H306.868C306.465 72.6063 306.065 72.5318 305.692 72.3865C305.319 72.2413 304.981 72.0283 304.696 71.7599C304.411 71.4915 304.185 71.1724 304.03 70.8218C303.876 70.4711 303.797 70.0958 303.797 69.7162C303.797 69.3366 303.876 68.9601 304.03 68.6095C304.185 68.2588 304.411 67.9409 304.696 67.6725C304.981 67.4041 305.319 67.1911 305.692 67.0459C306.065 66.9006 306.465 66.8261 306.868 66.8261H348.332C349.342 66.8261 350.312 66.4486 351.026 65.7764C351.74 65.1042 352.142 64.1915 352.142 63.2409C352.142 62.2902 351.74 61.3788 351.026 60.7066C350.312 60.0344 349.342 59.6568 348.332 59.6568H335.656C335.253 59.6571 334.854 59.5833 334.481 59.4382C334.109 59.2932 333.771 59.0799 333.485 58.8116C333.2 58.5434 332.974 58.2252 332.82 57.8746C332.665 57.5241 332.587 57.1484 332.587 56.7691V53.3756C332.587 51.11 331.63 48.9383 329.927 47.3363C328.225 45.7342 325.916 44.8333 323.508 44.8333C321.1 44.8333 318.793 45.7342 317.09 47.3363C315.388 48.9383 314.43 51.11 314.43 53.3756C314.43 54.1422 314.107 54.8785 313.531 55.4205C312.955 55.9626 312.174 56.2669 311.359 56.2669C310.544 56.2669 309.763 55.9626 309.187 55.4205C308.611 54.8785 308.288 54.1422 308.288 53.3756C308.288 49.5769 309.891 45.9338 312.745 43.2476C315.6 40.5615 319.471 39.0532 323.508 39.0532C327.545 39.0532 331.418 40.5615 334.272 43.2476C337.127 45.9338 338.73 49.5769 338.73 53.3756V53.8744H348.345C349.665 53.8545 350.976 54.0811 352.202 54.5428C353.428 55.0046 354.545 55.6917 355.486 56.5633C356.427 57.4349 357.174 58.4735 357.684 59.6196C358.194 60.7657 358.457 61.996 358.457 63.2386C358.457 64.4811 358.194 65.7114 357.684 66.8575C357.174 68.0036 356.427 69.0434 355.486 69.915C354.545 70.7866 353.428 71.4726 352.202 71.9343C350.976 72.3961 349.665 72.6237 348.345 72.6039L348.332 72.6063Z" fill="#E7E7E7"/>
<path d="M111.764 267.873H9.77951C9.0007 267.873 8.25398 267.582 7.70328 267.063C7.15258 266.545 6.84375 265.843 6.84375 265.11C6.84375 264.377 7.15258 263.674 7.70328 263.156C8.25398 262.638 9.0007 262.347 9.77951 262.347H111.764C112.543 262.347 113.29 262.638 113.84 263.156C114.391 263.674 114.701 264.377 114.701 265.11C114.701 265.843 114.391 266.545 113.84 267.063C113.29 267.582 112.543 267.873 111.764 267.873Z" fill="#E7E7E7"/>
<path d="M349.705 267.873L258.362 267.873C257.583 267.873 256.836 267.582 256.285 267.063C255.735 266.545 255.426 265.843 255.426 265.11C255.426 264.377 255.735 263.674 256.285 263.156C256.836 262.638 257.583 262.347 258.362 262.347L349.705 262.347C350.484 262.347 351.23 262.638 351.781 263.156C352.332 263.674 352.641 264.377 352.641 265.11C352.641 265.843 352.332 266.545 351.781 267.063C351.23 267.582 350.484 267.873 349.705 267.873Z" fill="#E7E7E7"/>
<path d="M133.958 307.691H103.012C102.289 307.691 101.598 307.421 101.087 306.941C100.576 306.46 100.289 305.808 100.289 305.128C100.289 304.449 100.576 303.797 101.087 303.316C101.598 302.835 102.289 302.566 103.012 302.566H133.958C134.681 302.566 135.374 302.835 135.884 303.316C136.395 303.797 136.682 304.449 136.682 305.128C136.682 305.808 136.395 306.46 135.884 306.941C135.374 307.421 134.681 307.691 133.958 307.691Z" fill="#E7E7E7"/>
<path d="M91.3189 307.691H75.8436C75.1213 307.691 74.4284 307.421 73.9177 306.941C73.4069 306.46 73.1211 305.808 73.1211 305.128C73.1211 304.449 73.4069 303.797 73.9177 303.316C74.4284 302.835 75.1213 302.566 75.8436 302.566H91.3189C92.0412 302.566 92.7328 302.835 93.2436 303.316C93.7543 303.797 94.0414 304.449 94.0414 305.128C94.0414 305.808 93.7543 306.46 93.2436 306.941C92.7328 307.421 92.0412 307.691 91.3189 307.691Z" fill="#E7E7E7"/>
<path d="M283.177 307.691H252.232C251.509 307.691 250.816 307.421 250.306 306.941C249.795 306.46 249.508 305.808 249.508 305.128C249.508 304.449 249.795 303.797 250.306 303.316C250.816 302.835 251.509 302.566 252.232 302.566H283.177C283.535 302.566 283.889 302.632 284.219 302.761C284.55 302.89 284.85 303.078 285.103 303.316C285.356 303.554 285.556 303.837 285.693 304.148C285.83 304.459 285.901 304.792 285.901 305.128C285.901 305.465 285.83 305.798 285.693 306.109C285.556 306.42 285.356 306.703 285.103 306.941C284.85 307.178 284.55 307.368 284.219 307.497C283.889 307.625 283.535 307.691 283.177 307.691Z" fill="#E7E7E7"/>
<path d="M240.495 307.691H225.019C224.297 307.691 223.604 307.421 223.093 306.941C222.583 306.46 222.297 305.808 222.297 305.128C222.297 304.449 222.583 303.797 223.093 303.316C223.604 302.835 224.297 302.566 225.019 302.566H240.495C241.217 302.566 241.909 302.835 242.419 303.316C242.93 303.797 243.217 304.449 243.217 305.128C243.217 305.808 242.93 306.46 242.419 306.941C241.909 307.421 241.217 307.691 240.495 307.691Z" fill="#E7E7E7"/>
<path d="M104.878 316.453H89.4022C88.6799 316.453 87.9883 316.183 87.4775 315.702C86.9668 315.221 86.6797 314.569 86.6797 313.89C86.6797 313.21 86.9668 312.558 87.4775 312.077C87.9883 311.597 88.6799 311.327 89.4022 311.327H104.878C105.6 311.327 106.291 311.597 106.802 312.077C107.313 312.558 107.6 313.21 107.6 313.89C107.6 314.569 107.313 315.221 106.802 315.702C106.291 316.183 105.6 316.453 104.878 316.453Z" fill="#E7E7E7"/>
<path d="M274.088 227.544C274.088 216.345 274.088 138.724 274.088 130.684C274.088 118.095 272.709 111.235 259.787 111.235C246.865 111.235 133.337 111.235 107.781 111.235C97.444 111.235 86.4219 111.235 86.4219 128.177C86.4219 145.12 86.4219 214.335 86.4219 227.544M274.088 227.544C274.088 244.437 269.994 248.782 257.197 248.782C254.7 248.782 237.776 248.782 216.098 248.782M274.088 227.544H86.4219M86.4219 227.544C86.4219 240.754 91.9878 248.782 107.781 248.782C112.45 248.782 126.787 248.782 144.854 248.782M144.854 248.782L136.37 265.212C134.651 268.54 137.067 272.506 140.813 272.506H220.789C224.603 272.506 227.012 268.409 225.159 265.076L216.098 248.782M144.854 248.782C166.649 248.782 193.872 248.782 216.098 248.782" stroke="#E7E7E7" stroke-width="6"/>
<path d="M138.741 153.899L180.201 134.07L222.925 153.899M138.741 153.899H222.925M138.741 153.899V160.929H145.231M222.925 153.899V160.929H214.663M145.231 160.929V196.802M145.231 160.929H155.145M145.231 196.802H155.145M145.231 196.802H139.333V203.317M214.663 196.802V160.929M214.663 196.802H204.178M214.663 196.802H220.586V203.317M214.663 160.929H204.178M155.145 160.929V196.802M155.145 160.929H165.06M155.145 196.802H165.06M165.06 160.929V196.802M165.06 160.929H175.335M165.06 196.802H175.335M175.335 160.929V196.802M175.335 160.929H184.529M175.335 196.802H184.529M184.529 160.929V196.802M184.529 160.929H195.345M184.529 196.802H195.345M195.345 160.929V196.802M195.345 160.929H204.178M195.345 196.802H204.178M204.178 160.929V196.802M139.333 203.317H220.586M139.333 203.317H133.512V210.102H226.998V203.317H220.586" stroke="#FB9600" stroke-width="4" stroke-linejoin="round"/>
<circle cx="257.318" cy="129" r="33.6146" fill="white"/>
<path d="M290.926 129C290.926 109.819 275.377 94.2696 256.196 94.2696C237.014 94.2696 221.465 109.819 221.465 129C221.465 148.181 237.014 163.731 256.196 163.731C275.377 163.731 290.926 148.181 290.926 129Z" fill="white" stroke="#FB9600" stroke-width="10" stroke-linecap="round" stroke-linejoin="bevel"/>
<path d="M255.012 108.488V133.365L270.122 142.613" stroke="#FB9600" stroke-width="10" stroke-linecap="round" stroke-linejoin="round"/>
</svg>
