<svg width="360" height="360" viewBox="0 0 360 360" fill="none" xmlns="http://www.w3.org/2000/svg">
<path d="M11.1492 130.337H52.6188C53.4338 130.337 54.2156 130.033 54.7919 129.491C55.3682 128.949 55.6913 128.213 55.6913 127.446C55.6913 126.679 55.3682 125.944 54.7919 125.401C54.2156 124.859 53.4338 124.555 52.6188 124.555H11.1492C10.1393 124.555 9.17132 124.177 8.45721 123.505C7.74309 122.833 7.34161 121.921 7.34161 120.971C7.34161 120.021 7.74309 119.11 8.45721 118.438C9.17132 117.766 10.1393 117.388 11.1492 117.388H23.8284C24.2316 117.388 24.6308 117.314 25.0033 117.168C25.3758 117.023 25.714 116.81 25.999 116.542C26.2841 116.273 26.5096 115.954 26.6637 115.603C26.8178 115.253 26.8975 114.877 26.8972 114.498V111.108C26.8972 108.843 27.8536 106.669 29.5558 105.067C31.2581 103.466 33.5665 102.566 35.9739 102.566C38.3812 102.566 40.6897 103.466 42.3919 105.067C44.0942 106.669 45.0506 108.843 45.0506 111.108C45.0506 111.875 45.3752 112.61 45.9512 113.152C46.5272 113.694 47.3084 113.998 48.1231 113.998C48.9377 113.998 49.7189 113.694 50.295 113.152C50.871 112.61 51.1944 111.875 51.1944 111.108C51.1427 107.341 49.5165 103.745 46.6677 101.099C43.819 98.4523 39.9769 96.9692 35.9739 96.9692C31.9709 96.9692 28.1287 98.4523 25.28 101.099C22.4313 103.745 20.805 107.341 20.7534 111.108V111.606H11.1393C9.819 111.586 8.50824 111.812 7.28231 112.274C6.05639 112.736 4.93968 113.423 3.99855 114.294C3.05741 115.166 2.30967 116.205 1.79949 117.351C1.2893 118.497 1.02734 119.727 1.02734 120.97C1.02734 122.212 1.2893 123.443 1.79949 124.589C2.30967 125.735 3.05741 126.775 3.99855 127.646C4.93968 128.518 6.05639 129.204 7.28231 129.665C8.50824 130.127 9.819 130.355 11.1393 130.335L11.1492 130.337Z" fill="#E7E7E7"/>
<path d="M348.332 72.6063H306.868C306.465 72.6063 306.065 72.5318 305.692 72.3865C305.319 72.2413 304.981 72.0283 304.696 71.7599C304.411 71.4915 304.185 71.1724 304.03 70.8218C303.876 70.4711 303.797 70.0958 303.797 69.7162C303.797 69.3366 303.876 68.9601 304.03 68.6095C304.185 68.2588 304.411 67.9409 304.696 67.6725C304.981 67.4041 305.319 67.1911 305.692 67.0459C306.065 66.9006 306.465 66.8261 306.868 66.8261H348.332C349.342 66.8261 350.312 66.4486 351.026 65.7764C351.74 65.1042 352.142 64.1915 352.142 63.2409C352.142 62.2902 351.74 61.3788 351.026 60.7066C350.312 60.0344 349.342 59.6568 348.332 59.6568H335.656C335.253 59.6571 334.854 59.5833 334.481 59.4382C334.109 59.2932 333.771 59.0799 333.485 58.8116C333.2 58.5434 332.974 58.2252 332.82 57.8746C332.665 57.5241 332.587 57.1484 332.587 56.7691V53.3756C332.587 51.11 331.63 48.9383 329.927 47.3363C328.225 45.7342 325.916 44.8333 323.508 44.8333C321.1 44.8333 318.793 45.7342 317.09 47.3363C315.388 48.9383 314.43 51.11 314.43 53.3756C314.43 54.1422 314.107 54.8785 313.531 55.4205C312.955 55.9626 312.174 56.2669 311.359 56.2669C310.544 56.2669 309.763 55.9626 309.187 55.4205C308.611 54.8785 308.288 54.1422 308.288 53.3756C308.288 49.5769 309.891 45.9338 312.745 43.2476C315.6 40.5615 319.471 39.0532 323.508 39.0532C327.545 39.0532 331.418 40.5615 334.272 43.2476C337.127 45.9338 338.73 49.5769 338.73 53.3756V53.8744H348.345C349.665 53.8545 350.976 54.0811 352.202 54.5428C353.428 55.0046 354.545 55.6917 355.486 56.5633C356.427 57.4349 357.174 58.4735 357.684 59.6196C358.194 60.7657 358.457 61.996 358.457 63.2386C358.457 64.4811 358.194 65.7114 357.684 66.8575C357.174 68.0036 356.427 69.0434 355.486 69.915C354.545 70.7866 353.428 71.4726 352.202 71.9343C350.976 72.3961 349.665 72.6237 348.345 72.6039L348.332 72.6063Z" fill="#E7E7E7"/>
<path d="M111.764 267.873H9.77951C9.0007 267.873 8.25398 267.582 7.70328 267.063C7.15258 266.545 6.84375 265.843 6.84375 265.11C6.84375 264.377 7.15258 263.674 7.70328 263.156C8.25398 262.638 9.0007 262.347 9.77951 262.347H111.764C112.543 262.347 113.29 262.638 113.84 263.156C114.391 263.674 114.701 264.377 114.701 265.11C114.701 265.843 114.391 266.545 113.84 267.063C113.29 267.582 112.543 267.873 111.764 267.873Z" fill="#E7E7E7"/>
<path d="M349.705 267.873L258.362 267.873C257.583 267.873 256.836 267.582 256.285 267.063C255.735 266.545 255.426 265.843 255.426 265.11C255.426 264.377 255.735 263.674 256.285 263.156C256.836 262.638 257.583 262.347 258.362 262.347L349.705 262.347C350.484 262.347 351.23 262.638 351.781 263.156C352.332 263.674 352.641 264.377 352.641 265.11C352.641 265.843 352.332 266.545 351.781 267.063C351.23 267.582 350.484 267.873 349.705 267.873Z" fill="#E7E7E7"/>
<path d="M133.958 307.691H103.012C102.289 307.691 101.598 307.421 101.087 306.941C100.576 306.46 100.289 305.808 100.289 305.128C100.289 304.449 100.576 303.797 101.087 303.316C101.598 302.835 102.289 302.566 103.012 302.566H133.958C134.681 302.566 135.374 302.835 135.884 303.316C136.395 303.797 136.682 304.449 136.682 305.128C136.682 305.808 136.395 306.46 135.884 306.941C135.374 307.421 134.681 307.691 133.958 307.691Z" fill="#E7E7E7"/>
<path d="M91.3189 307.691H75.8436C75.1213 307.691 74.4284 307.421 73.9177 306.941C73.4069 306.46 73.1211 305.808 73.1211 305.128C73.1211 304.449 73.4069 303.797 73.9177 303.316C74.4284 302.835 75.1213 302.566 75.8436 302.566H91.3189C92.0412 302.566 92.7328 302.835 93.2436 303.316C93.7543 303.797 94.0414 304.449 94.0414 305.128C94.0414 305.808 93.7543 306.46 93.2436 306.941C92.7328 307.421 92.0412 307.691 91.3189 307.691Z" fill="#E7E7E7"/>
<path d="M283.177 307.691H252.232C251.509 307.691 250.816 307.421 250.306 306.941C249.795 306.46 249.508 305.808 249.508 305.128C249.508 304.449 249.795 303.797 250.306 303.316C250.816 302.835 251.509 302.566 252.232 302.566H283.177C283.535 302.566 283.889 302.632 284.219 302.761C284.55 302.89 284.85 303.078 285.103 303.316C285.356 303.554 285.556 303.837 285.693 304.148C285.83 304.459 285.901 304.792 285.901 305.128C285.901 305.465 285.83 305.798 285.693 306.109C285.556 306.42 285.356 306.703 285.103 306.941C284.85 307.178 284.55 307.368 284.219 307.497C283.889 307.625 283.535 307.691 283.177 307.691Z" fill="#E7E7E7"/>
<path d="M240.495 307.691H225.019C224.297 307.691 223.604 307.421 223.093 306.941C222.583 306.46 222.297 305.808 222.297 305.128C222.297 304.449 222.583 303.797 223.093 303.316C223.604 302.835 224.297 302.566 225.019 302.566H240.495C241.217 302.566 241.909 302.835 242.419 303.316C242.93 303.797 243.217 304.449 243.217 305.128C243.217 305.808 242.93 306.46 242.419 306.941C241.909 307.421 241.217 307.691 240.495 307.691Z" fill="#E7E7E7"/>
<path d="M104.878 316.453H89.4022C88.6799 316.453 87.9883 316.183 87.4775 315.702C86.9668 315.221 86.6797 314.569 86.6797 313.89C86.6797 313.21 86.9668 312.558 87.4775 312.077C87.9883 311.597 88.6799 311.327 89.4022 311.327H104.878C105.6 311.327 106.291 311.597 106.802 312.077C107.313 312.558 107.6 313.21 107.6 313.89C107.6 314.569 107.313 315.221 106.802 315.702C106.291 316.183 105.6 316.453 104.878 316.453Z" fill="#E7E7E7"/>
<path d="M107.827 291.234L102.507 286.936C101.331 285.987 100.648 284.557 100.648 283.047V93.7222C100.648 90.9607 102.882 88.7222 105.644 88.7222H254.369C257.13 88.7222 259.348 90.9607 259.348 93.7222V284.142C259.348 285.634 258.682 287.049 257.531 287.998L253.187 291.584C251.423 293.04 248.896 293.113 247.05 291.762L242.883 288.71C241.093 287.399 238.654 287.424 236.891 288.772L232.97 291.77C231.198 293.126 228.742 293.143 226.951 291.812L222.893 288.797C221.069 287.443 218.562 287.488 216.788 288.907L213.357 291.651C211.583 293.07 209.076 293.115 207.252 291.761L203.172 288.729C201.391 287.407 198.952 287.415 197.181 288.75L193.123 291.808C191.352 293.143 188.913 293.151 187.132 291.829L183.076 288.816C181.241 287.452 178.715 287.507 176.941 288.949L173.625 291.643C171.87 293.069 169.377 293.14 167.545 291.816L163.24 288.707C161.43 287.4 158.972 287.451 157.218 288.833L153.59 291.692C151.816 293.089 149.326 293.125 147.514 291.778L143.478 288.78C141.665 287.433 139.175 287.469 137.402 288.866L133.916 291.612C132.096 293.046 129.528 293.042 127.713 291.6L123.442 288.208C121.452 286.628 118.593 286.792 116.797 288.588L114.505 290.88C112.697 292.688 109.816 292.841 107.827 291.234Z" fill="white" stroke="#E7E7E7" stroke-width="6" stroke-linejoin="round"/>
<rect x="112.512" y="111.354" width="75.3035" height="11.1479" rx="5.57395" fill="#E7E7E7"/>
<rect x="112.512" y="134.103" width="75.3035" height="11.1479" rx="5.57395" fill="#E7E7E7"/>
<rect x="170" y="230.135" width="75.3035" height="11.1479" rx="5.57395" fill="#E7E7E7"/>
<rect x="170" y="251.109" width="43.777" height="11.1479" rx="5.57394" fill="#E7E7E7"/>
<rect x="112.512" y="164.249" width="135.137" height="54.2848" rx="15" fill="#E7E7E7"/>
<path d="M132.46 223.236C133.11 222.956 133.815 222.734 134.576 222.573V236.02C134.314 235.933 134.047 235.842 133.773 235.745C132.748 235.368 131.768 234.893 130.833 234.32C129.954 233.766 129.24 233.085 128.68 232.276C128.182 231.519 127.912 230.59 127.912 229.442C127.912 228.076 128.298 226.881 129.066 225.822C129.861 224.75 130.978 223.882 132.46 223.236ZM133.376 243.495L134.576 243.838V260.156C133.804 260.022 133.059 259.833 132.341 259.589C130.801 259.046 129.552 258.235 128.567 257.167C128.141 256.69 127.798 256.155 127.537 255.561C126.816 253.922 125.289 252.218 123.111 252.218C120.826 252.218 118.657 254.247 119.422 256.771C119.874 258.262 120.552 259.64 121.455 260.9L121.458 260.904C123.049 263.101 125.218 264.794 127.927 265.996L127.929 265.997C129.907 266.87 132.126 267.418 134.576 267.655V270.112C134.576 271.754 135.907 273.085 137.549 273.085C139.191 273.085 140.522 271.754 140.522 270.112V267.649C143.164 267.391 145.522 266.778 147.582 265.792C150.385 264.458 152.56 262.635 154.056 260.306C155.56 257.988 156.309 255.392 156.309 252.545C156.309 250.099 155.807 247.962 154.748 246.185C153.732 244.481 152.434 243.075 150.854 241.98C149.344 240.907 147.754 240.056 146.083 239.432C144.488 238.829 143.028 238.353 141.704 238.005C141.703 238.005 141.702 238.005 141.701 238.005L140.522 237.687V222.483C142.156 222.766 143.576 223.316 144.797 224.118C145.928 224.859 146.729 225.764 147.238 226.831C147.97 228.367 149.45 229.961 151.531 229.961C152.655 229.961 153.705 229.489 154.403 228.71C155.115 227.916 155.46 226.797 155.108 225.618C154.69 224.213 154.028 222.906 153.128 221.699C151.572 219.591 149.475 217.95 146.869 216.765C144.939 215.876 142.821 215.321 140.522 215.09V212.452C140.522 210.81 139.191 209.479 137.549 209.479C135.907 209.479 134.576 210.81 134.576 212.452V215.198C132.608 215.476 130.757 216.004 129.028 216.787C126.349 217.991 124.185 219.701 122.567 221.923L122.566 221.924C120.939 224.163 120.137 226.78 120.137 229.731C120.137 233.304 121.358 236.269 123.831 238.531C126.221 240.716 129.421 242.358 133.374 243.495L133.376 243.495ZM140.522 260.147V245.544C141.81 245.939 143.021 246.381 144.157 246.869C145.539 247.464 146.614 248.219 147.415 249.119C148.136 249.929 148.533 251.008 148.533 252.448C148.533 254.032 148.073 255.383 147.161 256.545C146.223 257.723 144.935 258.67 143.257 259.369C142.408 259.714 141.497 259.975 140.522 260.147Z" fill="#5FCE48" stroke="#5FCE48" stroke-width="2"/>
<path d="M282.921 122.01C282.921 142.787 266.077 159.631 245.3 159.631C224.523 159.631 207.68 142.787 207.68 122.01C207.68 101.233 224.523 84.3896 245.3 84.3896C266.077 84.3896 282.921 101.233 282.921 122.01Z" fill="white" stroke="#5FCE48" stroke-width="10"/>
<path d="M222.203 123.174L235.486 136.457C237.439 138.41 240.604 138.41 242.557 136.457L268.394 110.621" stroke="#5FCE48" stroke-width="10" stroke-linecap="round" stroke-linejoin="round"/>
</svg>
