<svg width="14" height="12" viewBox="0 0 14 12" fill="none" xmlns="http://www.w3.org/2000/svg">
<path fill-rule="evenodd" clip-rule="evenodd" d="M4.3155 8.55657C4.9934 7.46864 5.75683 6.43646 6.59852 5.46966C8.00034 3.79853 9.67169 2.37348 11.5435 1.25359C12.2545 0.841166 13.0037 0.49832 13.7805 0.229669C13.9045 0.185669 13.9295 0.202579 13.9395 0.337579C13.9562 0.431869 13.9386 0.529112 13.8898 0.611505C13.841 0.693899 13.7642 0.755949 13.6735 0.786554C12.2188 1.5588 10.8925 2.55167 9.74149 3.72967C7.60197 5.88605 5.89194 8.42954 4.70249 11.2247C4.62449 11.4057 4.54551 11.5866 4.45951 11.7916C4.35451 11.6736 4.2595 11.5716 4.1655 11.4666C2.82217 9.95394 1.47816 8.4436 0.133491 6.9356C0.0254908 6.8126 0.0174988 6.76061 0.160499 6.66461C0.628499 6.34161 1.09152 6.00756 1.54652 5.67156C1.65652 5.58756 1.71452 5.58661 1.80952 5.69561C2.59052 6.59561 3.37951 7.49556 4.16651 8.39556C4.20651 8.44456 4.2525 8.49357 4.3155 8.55657Z" fill="#F09108"/>
</svg>
