<svg width="50" height="50" viewBox="0 0 50 50" fill="none" xmlns="http://www.w3.org/2000/svg">
<circle cx="24.8447" cy="24.9433" r="21.7626" fill="#FFF1E8"/>
<path fillRule="evenodd" clipRule="evenodd" d="M42.2594 33.8691C43.7182 31.1334 44.5451 28.0098 44.5451 24.693C44.5451 13.9077 35.802 5.16455 25.0167 5.16455C14.2315 5.16455 5.48828 13.9077 5.48828 24.693C5.48828 25.9034 5.59841 27.0882 5.8092 28.2377C6.22795 27.9551 6.97926 26.9267 7.11037 24.6979C7.29928 21.4864 8.58386 18.3505 9.30172 16.6503C10.0196 14.9501 12.2487 12.1543 15.309 10.1519C18.3694 8.14942 20.9763 7.31821 23.5833 7.31821C26.1902 7.31821 27.9659 7.31821 30.7996 8.26276C33.6332 9.20731 35.7112 10.2274 38.5071 13.4389C41.3029 16.6503 42.7764 21.1086 43.0031 24.0178C43.1823 26.3173 42.5894 31.4863 42.2594 33.8691ZM6.64132 31.3196C6.48367 30.8825 6.34118 30.4382 6.21446 29.9873C6.30695 29.8966 6.40958 29.7965 6.51848 29.6902L6.51856 29.6902L6.5186 29.6901C7.1828 29.0422 8.08023 28.1666 8.33352 27.8159C8.77574 27.2036 8.77574 24.7544 8.74172 23.3597C8.71451 22.244 9.07055 20.9671 9.25197 20.4682H10.7827C10.8167 20.8877 10.8644 21.856 10.7827 22.373C10.736 22.669 10.7035 23.2361 10.6625 23.9533C10.6139 24.8024 10.5532 25.8619 10.4426 26.9314C10.2793 28.5098 8.9685 30.5145 8.33352 31.3196H6.64132ZM8.11178 34.4761C7.76396 33.8763 7.44713 33.2564 7.1635 32.6184C7.6063 32.5222 8.15393 32.3601 8.58554 32.1557C9.504 31.7207 11.268 30.2287 11.572 28.8483C11.7037 28.2501 11.7874 27.1069 11.8779 25.8714C11.9961 24.2561 12.126 22.483 12.3898 21.5643C12.8554 19.9429 13.8194 17.8405 15.0027 16.5817C16.1861 15.3229 17.2933 14.4446 18.796 13.5952C19.9981 12.9157 21.2477 12.5388 21.7223 12.4352H22.5527V13.5952C21.4323 13.9122 19.2076 15.1106 18.0842 15.9094C15.2989 17.8898 14.108 20.4925 13.6948 23.146C13.5213 24.26 13.4761 25.4398 13.4331 26.5623C13.3598 28.4748 13.293 30.2212 12.6086 31.1931C11.5226 32.7353 10.1853 33.9021 9.46351 34.0998C9.04021 34.2158 8.49903 34.3672 8.11178 34.4761ZM9.78578 36.9161C9.4803 36.536 9.18875 36.1441 8.91192 35.7414C9.39192 35.5723 10.043 35.323 10.5288 35.0769C11.1634 34.7554 11.7788 34.1152 12.5576 33.3052L12.5576 33.3052L12.5577 33.3051C12.8129 33.0397 13.0855 32.7561 13.3821 32.4595C14.5545 31.2871 14.7544 29.933 14.9303 28.7412L14.9436 28.6512C15.1234 27.438 15.6963 26.3146 16.1681 26.3146C16.6399 26.3146 16.932 26.8201 16.8421 27.9547C16.7523 29.0893 16.5185 30.2576 15.3595 32.5606C14.4328 34.402 13.5085 35.0727 12.6239 35.7145C12.4022 35.8754 12.183 36.0344 11.9669 36.2096C11.2891 36.7592 10.3867 36.9079 9.78578 36.9161ZM12.358 39.5634C11.8207 39.1056 11.3085 38.6192 10.8238 38.1065C11.9647 37.5413 13.8216 36.6 14.4288 36.2096C14.85 35.9389 15.171 35.4457 15.4834 34.9658C15.8045 34.4724 16.1164 33.9932 16.5185 33.7844C17.3117 33.3726 17.7693 34.2572 17.7693 34.6538C17.7693 35.0504 16.8391 36.0724 15.3595 37.5824C14.3544 38.6083 13.0949 39.2667 12.358 39.5634ZM15.229 41.5952C14.6418 41.2545 14.074 40.884 13.5276 40.4858C14.1039 40.2381 15.337 39.6389 16.3389 38.9218C17.6632 37.974 18.877 36.8156 19.9292 34.7621C20.9813 32.7086 21.6668 29.1032 21.7896 28.4436C21.9125 27.7839 22.7252 27.7591 23.0182 27.8293C23.3112 27.8995 23.3302 28.4611 23.3302 29.4967C23.3302 30.5322 23.0007 31.6033 22.2284 33.4984C21.4561 35.3935 20.12 37.3259 18.135 39.4308C16.7788 40.8688 15.7393 41.4376 15.229 41.5952ZM18.7642 43.199C18.1747 42.9999 17.5978 42.7734 17.035 42.5211C17.6343 41.9518 18.4623 41.1955 19.2834 40.5249C20.8209 39.2692 22.2278 37.2179 23.3302 35.0712C24.4325 32.9245 24.8967 28.8922 24.9982 26.8604C25.0997 24.8285 25.7089 24.2798 26.2891 24.3574C26.8693 24.4351 27.095 25.4786 26.9093 26.8604C26.7237 28.2422 25.5173 33.813 23.4225 37.7706C21.7466 40.9367 19.8244 42.7087 19.0728 43.199H18.7642ZM22.531 44.0647C21.8362 43.9764 21.1529 43.8517 20.4829 43.6924C21.0347 43.0931 21.8523 42.2357 22.3831 41.7806C23.1261 41.1439 24.4364 38.8805 25.1176 37.7039C25.2009 37.56 25.2748 37.4324 25.3371 37.3259C25.9088 36.3492 26.5044 35.5605 26.9093 35.5605C27.3143 35.5605 27.706 35.849 27.706 36.4445C27.706 36.9121 26.8918 38.2168 26.0346 39.5904C25.8 39.9662 25.5623 40.3472 25.3371 40.7176C24.5118 42.0751 23.1418 43.4959 22.531 44.0647ZM26.1713 44.1878C25.7893 44.2101 25.4043 44.2214 25.0167 44.2214C24.7216 44.2214 24.428 44.2149 24.1361 44.2019C24.6879 43.5984 25.3969 42.8018 26.001 42.0649C27.1625 40.6484 28.2079 38.4643 29.4159 35.5605C30.6238 32.6567 31.2975 27.1512 31.2743 25.4786C31.2646 24.7845 31.187 24.1105 31.121 23.5378C31.028 22.7303 30.9582 22.1243 31.1349 21.9476C31.4369 21.6456 31.9712 21.8082 32.3865 22.2496C32.8019 22.691 32.9468 24.4057 32.9468 26.5704C32.9468 28.7351 32.3865 31.5649 31.9712 33.3304C31.6456 34.7145 30.5455 37.098 29.6041 39.1378L29.6041 39.1378L29.604 39.1381L29.6037 39.1388L29.6035 39.1392L29.6033 39.1396C29.3442 39.701 29.0971 40.2363 28.8816 40.7176C28.148 42.3553 26.8625 43.6354 26.1713 44.1878ZM31.3067 43.1863C30.2651 43.5405 29.1839 43.8091 28.0716 43.9839C28.2703 43.7096 28.4807 43.4287 28.6964 43.1408C29.4197 42.1755 30.2018 41.1316 30.7981 39.9956C31.5399 38.5825 31.8057 37.5989 31.9762 36.968C32.1102 36.472 32.1853 36.194 32.3865 36.0969C32.8437 35.8764 33.5777 35.829 33.7041 36.3175C33.8734 36.9717 33.4744 38.0704 33.0565 39.221L33.0565 39.2213L33.0561 39.2222L33.0558 39.2232L33.0556 39.2236L33.0554 39.2241L33.0552 39.2246C32.9782 39.4369 32.9004 39.651 32.8255 39.8643C32.4929 40.8117 31.7965 42.2588 31.3067 43.1863ZM35.8435 40.9479C34.997 41.5128 34.104 42.0133 33.1713 42.4425C33.5971 41.3439 34.4145 39.1544 35.1456 36.934C36.1715 33.8183 36.7146 31.5647 36.956 28.8555C37.1974 26.1463 36.7448 21.614 36.081 20.1054C35.4172 18.5967 32.762 15.7907 31.4344 14.976C30.545 14.4302 29.6825 14.2772 28.7836 14.1177L28.7836 14.1177C28.3407 14.0391 27.889 13.9589 27.4209 13.8294C26.0028 13.4372 26.365 12.3509 26.6969 11.9587C27.0265 11.5693 27.6238 11.7449 29.6417 12.3385L29.6839 12.3509C31.5884 12.911 32.661 13.8092 34.1083 15.0212L34.1085 15.0214L34.1099 15.0226C34.2213 15.1158 34.3348 15.2109 34.4512 15.3079C36.0805 16.6657 37.4986 19.2304 38.0719 21.433C38.6452 23.6356 38.5547 26.9546 38.353 29.5193C38.1915 31.5741 37.7404 33.7644 37.4467 35.1903L37.4467 35.1904L37.4466 35.1905L37.4466 35.1906L37.4466 35.1907L37.4466 35.1908L37.4465 35.191C37.3737 35.5446 37.3106 35.8511 37.2639 36.0969C37.0635 37.1536 36.2904 39.8609 35.8435 40.9479ZM39.9863 37.2345C39.2238 38.1436 38.3801 38.9822 37.4664 39.7391C37.707 39.074 37.9678 38.2091 38.1888 37.4764L38.1888 37.4763L38.1891 37.4753L38.1894 37.4743C38.247 37.2832 38.3019 37.1011 38.353 36.934C39.3335 33.728 39.7073 32.0005 39.8004 30.7088C39.89 29.4668 40.2206 25.0438 40.2673 24.6236C40.3047 24.2874 40.6564 24.0996 40.8276 24.0477L41.5279 24.4057C41.5487 25.2617 41.5777 27.1727 41.5279 27.9696C41.4929 28.5292 41.399 29.133 41.293 29.8142L41.293 29.8143L41.293 29.8143C41.2104 30.3455 41.1205 30.9237 41.0454 31.5647C40.9003 32.8053 40.4903 35.8203 39.9863 37.2345ZM12.8554 17.0259H11.7695C11.7119 16.6886 11.6312 15.8758 11.7695 15.3229C11.9422 14.6318 13.8427 13.0028 15.0027 12.0403C16.1628 11.0777 19.7169 9.22654 21.2965 8.90568C22.8761 8.58482 27.0966 8.48618 29.3427 9.02917C31.5887 9.57216 34.6492 11.3245 35.9326 12.4352C37.216 13.5459 39.0918 15.9893 39.2152 16.5817C39.3386 17.1741 38.3267 17.2728 37.8084 17.2728C37.5356 17.2728 37.3448 16.9172 37.0849 16.4328C36.8511 15.9969 36.5613 15.4567 36.1054 14.9774C35.1428 13.9655 33.5385 12.6571 31.9342 11.7933C30.3299 10.9294 26.7758 10.1151 23.197 10.3866C19.9291 10.6345 18.5339 11.6644 16.5123 13.1569C16.3199 13.2989 16.1218 13.4451 15.9159 13.5952C14.0204 14.9774 13.0858 16.4582 12.8554 17.0259ZM35.6475 30.0052C35.5592 30.4911 35.3604 30.7088 34.6977 30.7088C34.4694 30.6362 33.9908 30.3542 33.9025 29.8064C33.8608 29.548 33.904 28.8621 33.9598 27.9775L33.9598 27.9773L33.9598 27.977L33.9598 27.9769V27.9769C34.0518 26.5167 34.178 24.5156 34.0129 23.0026C33.7617 20.6994 31.3472 18.7733 30.2307 17.8826L30.2307 17.8826C30.1692 17.8336 30.1118 17.7877 30.0588 17.7451C29.0426 16.9278 27.165 16.4197 26.1488 16.3755C25.1327 16.3314 24.2491 16.486 22.6807 17.0603C21.1123 17.6347 19.08 18.9601 18.2405 20.2413C17.6167 21.1935 17.5175 21.8772 17.4348 22.4467C17.4063 22.6435 17.3797 22.8267 17.3341 23.0026C17.1567 23.6874 16.7384 23.842 16.3187 23.842C15.899 23.842 15.7884 23.3119 15.7663 22.4945C15.7442 21.6772 16.2296 20.396 17.3341 18.9601C18.4386 17.5242 20.7808 15.7791 21.8853 15.3079C22.9899 14.8367 25.6849 14.6525 27.4209 14.976C29.1569 15.2995 31.8038 16.8615 33.1955 18.3195C34.5872 19.7774 35.4045 21.8318 35.6475 22.7817C35.8905 23.7316 35.7359 29.5193 35.6475 30.0052ZM28.9774 32.4107C29.4159 31.1893 29.702 29.4885 29.8055 27.4835C29.909 25.4786 29.8543 23.7556 29.4159 23.0026C28.9774 22.2496 27.5903 21.3348 26.7415 21.2934C26.5866 21.2859 26.4242 21.2713 26.2572 21.2563L26.2571 21.2563L26.2571 21.2563C25.5087 21.1892 24.6688 21.1138 24.0088 21.6247C23.2014 22.2496 22.0627 23.6328 22.042 24.3574C22.0213 25.082 22.042 25.641 22.7252 25.6824C22.8039 25.6872 22.878 25.693 22.9476 25.6986C23.4814 25.7409 23.7492 25.7621 23.8224 25.1027C23.8323 25.0138 23.8404 24.9234 23.8486 24.8323L23.8486 24.8321L23.8486 24.8321L23.8486 24.8321L23.8486 24.832C23.9089 24.16 23.9727 23.45 24.7748 23.0026C25.6857 22.4945 26.5552 22.4299 27.3212 23.136C28.0872 23.842 28.2735 24.4609 28.2735 26.0964C28.2735 27.057 28.0777 28.5104 27.9162 29.7099C27.8027 30.5527 27.706 31.2702 27.706 31.6033C27.706 31.7691 27.6994 31.9122 27.6937 32.0351C27.6717 32.5108 27.6637 32.6841 28.1079 32.7006C28.5551 32.7171 28.8739 32.5143 28.9774 32.4107ZM27.9272 18.3195C28.7223 18.5651 28.8504 19.3655 28.815 19.735C28.7178 19.788 28.4042 19.8834 27.9272 19.841C27.4649 19.7999 27.3551 19.7588 26.9816 19.6189L26.9815 19.6189C26.8734 19.5783 26.7431 19.5295 26.5757 19.47C25.8301 19.205 24.4026 19.3507 22.945 20.1325C21.5153 20.8993 21.2585 21.5974 20.724 23.0499L20.6924 23.136C20.2388 24.3677 20.2077 26.9039 20.1902 28.331V28.3311V28.3311V28.3312V28.3312V28.3313V28.3313V28.3314C20.1862 28.6552 20.1829 28.9219 20.1756 29.1032C20.1358 30.0838 19.9238 30.5078 19.4601 31.0378C18.9963 31.5679 18.5458 31.3691 18.135 30.9186C17.7242 30.468 18.1482 29.4742 18.5458 29.1032C18.9433 28.7322 18.93 26.7579 18.877 25.5388C18.824 24.3197 19.248 21.8684 20.2153 20.3975C21.1826 18.9267 24.0088 18.0257 24.9988 17.9594C25.9889 17.8932 26.9334 18.0124 27.9272 18.3195Z" fill="#FB9600"/>
<rect x="0.636719" y="20.1426" width="49" height="9.78666" fill="#FFF1E8"/>
<path d="M1.56641 21.5591H3.09246V28.3827H1.56641V21.5591Z" fill="#FB9600"/>
<path fillRule="evenodd" clipRule="evenodd" d="M1.12891 21.1187H3.53422V28.8215H1.12891V21.1187ZM1.56854 21.5583V28.3819H3.09459V21.5583H1.56854Z" fill="#FFF1E8"/>
<path d="M4.59375 24.875H7.17445V25.8969H4.59375V24.875Z" fill="#FB9600"/>
<path fillRule="evenodd" clipRule="evenodd" d="M4.15234 24.4355H7.61231V26.3367H4.15234V24.4355ZM4.59198 24.8752V25.8971H7.17268V24.8752H4.59198Z" fill="#FFF1E8"/>
<path fillRule="evenodd" clipRule="evenodd" d="M8.59375 21.5874H10.1288V21.5948H11.9996C12.0573 21.5899 12.1157 21.5874 12.1746 21.5874C12.2336 21.5874 12.2919 21.5899 12.3497 21.5948H12.4255V21.6027C13.5279 21.7377 14.3845 22.7516 14.3845 23.9823C14.3845 24.9492 13.8558 25.7823 13.0946 26.1605L14.5801 28.3792H12.8121C12.4824 27.8018 11.8812 26.7559 11.6507 26.3773H10.1288V28.3822H8.59375V21.5874ZM10.1288 25.1859V22.8434H11.4046C12.5093 22.8434 12.8342 23.3964 12.8342 24.0152C12.8342 24.6295 12.5333 25.1859 11.4221 25.1859H10.1288Z" fill="#FB9600"/>
<path fillRule="evenodd" clipRule="evenodd" d="M10.5667 21.1479V21.1554H11.98C12.0438 21.1504 12.1007 21.1554 12.1654 21.1554C12.2302 21.1554 12.3019 21.1504 12.3657 21.1554H12.6464L12.8563 21.1955C14.0036 21.5243 14.8224 22.6952 14.8224 23.9825C14.8224 24.9257 14.3899 25.7736 13.7099 26.2921L15.4017 28.819H12.5551L12.4286 28.5974C12.1478 28.1057 11.6748 27.2825 11.3996 26.8171H10.5667V28.822H8.15234V21.1479H10.5667ZM11.649 26.3775C11.8794 26.7561 12.4806 27.802 12.8104 28.3794H14.5783L13.0929 26.1607C13.2242 26.0954 13.3487 26.0166 13.4647 25.9258C14.0208 25.4909 14.3827 24.7825 14.3827 23.9825C14.3827 22.7518 13.5261 21.7378 12.4237 21.6028V21.595H12.3479C12.2902 21.5901 12.2318 21.5876 12.1729 21.5876C12.1139 21.5876 12.0555 21.5901 11.9978 21.595H10.127V21.5876H8.59198V28.3824H10.127V26.3775H11.649ZM10.127 25.1861V22.8436H11.4029C12.5076 22.8436 12.8324 23.3966 12.8324 24.0154C12.8324 24.6297 12.5316 25.1861 11.4203 25.1861H10.127ZM10.5667 23.2832V24.7465H11.4203C11.9081 24.7465 12.1286 24.6247 12.2309 24.5215C12.3338 24.4179 12.3928 24.2568 12.3928 24.0154C12.3928 23.7787 12.3314 23.6168 12.2237 23.5109C12.115 23.4041 11.8871 23.2832 11.4029 23.2832H10.5667Z" fill="#FFF1E8"/>
<path fillRule="evenodd" clipRule="evenodd" d="M28.336 28.5386C30.4093 28.5386 32.09 26.9291 32.09 24.9436C32.09 22.9582 30.4093 21.3486 28.336 21.3486C26.2627 21.3486 24.582 22.9582 24.582 24.9436C24.582 26.9291 26.2627 28.5386 28.336 28.5386ZM28.3404 27.1597C29.496 27.1597 30.4329 26.1823 30.4329 24.9767C30.4329 23.771 29.496 22.7936 28.3404 22.7936C27.1847 22.7936 26.2479 23.771 26.2479 24.9767C26.2479 26.1823 27.1847 27.1597 28.3404 27.1597Z" fill="#FB9600"/>
<path fillRule="evenodd" clipRule="evenodd" d="M19.5352 28.5386C21.6085 28.5386 23.2892 26.9291 23.2892 24.9436C23.2892 22.9582 21.6085 21.3486 19.5352 21.3486C17.462 21.3486 15.7812 22.9582 15.7812 24.9436C15.7812 26.9291 17.462 28.5386 19.5352 28.5386ZM19.5396 27.1597C20.6952 27.1597 21.6321 26.1823 21.6321 24.9767C21.6321 23.771 20.6952 22.7936 19.5396 22.7936C18.3839 22.7936 17.4471 23.771 17.4471 24.9767C17.4471 26.1823 18.3839 27.1597 19.5396 27.1597Z" fill="#FB9600"/>
<path fillRule="evenodd" clipRule="evenodd" d="M32.5477 24.9435C32.5477 27.2 30.6434 28.9958 28.3364 28.9958C26.0294 28.9958 24.125 27.2 24.125 24.9435C24.125 22.687 26.0294 20.8911 28.3364 20.8911C30.6434 20.8911 32.5477 22.687 32.5477 24.9435ZM28.3407 26.7021C29.2257 26.7021 29.9758 25.948 29.9758 24.9765C29.9758 24.005 29.2257 23.2509 28.3407 23.2509C27.4557 23.2509 26.7056 24.005 26.7056 24.9765C26.7056 25.948 27.4557 26.7021 28.3407 26.7021ZM32.0903 24.9435C32.0903 26.9289 30.4096 28.5384 28.3364 28.5384C26.2631 28.5384 24.5824 26.9289 24.5824 24.9435C24.5824 22.958 26.2631 21.3485 28.3364 21.3485C30.4096 21.3485 32.0903 22.958 32.0903 24.9435ZM30.4332 24.9765C30.4332 26.1822 29.4964 27.1595 28.3407 27.1595C27.1851 27.1595 26.2482 26.1822 26.2482 24.9765C26.2482 23.7709 27.1851 22.7935 28.3407 22.7935C29.4964 22.7935 30.4332 23.7709 30.4332 24.9765Z" fill="#FFF1E8"/>
<path fillRule="evenodd" clipRule="evenodd" d="M23.747 24.9435C23.747 27.2 21.8426 28.9958 19.5356 28.9958C17.2286 28.9958 15.3242 27.2 15.3242 24.9435C15.3242 22.687 17.2286 20.8911 19.5356 20.8911C21.8426 20.8911 23.747 22.687 23.747 24.9435ZM19.5399 26.7021C20.4249 26.7021 21.1751 25.948 21.1751 24.9765C21.1751 24.005 20.4249 23.2509 19.5399 23.2509C18.6549 23.2509 17.9048 24.005 17.9048 24.9765C17.9048 25.948 18.6549 26.7021 19.5399 26.7021ZM23.2896 24.9435C23.2896 26.9289 21.6089 28.5384 19.5356 28.5384C17.4623 28.5384 15.7816 26.9289 15.7816 24.9435C15.7816 22.958 17.4623 21.3485 19.5356 21.3485C21.6089 21.3485 23.2896 22.958 23.2896 24.9435ZM21.6324 24.9765C21.6324 26.1822 20.6956 27.1595 19.5399 27.1595C18.3843 27.1595 17.4474 26.1822 17.4474 24.9765C17.4474 23.7709 18.3843 22.7935 19.5399 22.7935C20.6956 22.7935 21.6324 23.7709 21.6324 24.9765Z" fill="#FFF1E8"/>
<path fillRule="evenodd" clipRule="evenodd" d="M33.3828 21.4023H34.8521V21.4034H35.0533L37.2103 25.6566L39.3389 21.4044H39.5479V21.4023H41.0172V28.5384H39.5479V23.7608L39.5195 23.9462C38.943 25.2132 37.7767 27.7472 37.7235 27.7472H36.6402L34.8521 23.918V28.5384H33.3828V21.4023Z" fill="#FB9600"/>
<path fillRule="evenodd" clipRule="evenodd" d="M35.0536 21.4033H34.8525V21.4022H33.3832V28.5383H34.8525V23.9179L36.6405 27.747H37.7238C37.7658 27.747 38.4997 26.1718 39.0909 24.8843C39.2495 24.5388 39.3979 24.2141 39.5198 23.946L39.5482 23.7606V28.5383H41.0175V21.4022H39.5482V21.4043H39.3393L37.2107 25.6565L35.0536 21.4033ZM37.208 24.64L39.0567 20.9469H39.0909V20.9448H41.4749V28.9957H39.0909V25.9763C39.0056 26.1603 38.9212 26.3416 38.8399 26.5154C38.6545 26.9119 38.4844 27.2712 38.3567 27.5322C38.2933 27.662 38.2384 27.7715 38.1966 27.8502C38.1763 27.8883 38.1554 27.9264 38.136 27.9579C38.1274 27.9719 38.1119 27.9965 38.0921 28.0217C38.0833 28.033 38.0625 28.0589 38.0319 28.0863C38.0166 28.1 37.9882 28.1236 37.9482 28.1459C37.9124 28.1659 37.8329 28.2044 37.7238 28.2044H36.3493L35.3098 25.9784V28.9957H32.9258V20.9448H35.3098V20.9459H35.3345L37.208 24.64Z" fill="#FFF1E8"/>
<path fillRule="evenodd" clipRule="evenodd" d="M43.6106 28.5384H42.3867V27.3964L46.2407 22.8263H42.4682V21.3879H47.4145L47.4154 21.3867H48.4183V22.5036L44.6288 27.0999H48.445V28.5383H43.6107L43.6106 28.5384Z" fill="#FB9600"/>
<path fillRule="evenodd" clipRule="evenodd" d="M41.9297 28.9962V27.2296L45.257 23.2841H42.0112V20.9309H47.1952L47.1962 20.9297H48.876V22.6682L45.5991 26.6428H48.9028V28.996H43.8566L43.8565 28.9962H41.9297ZM43.611 28.5387H48.4454V27.1002H44.6292L48.4187 22.504V21.3871H47.4158L47.4148 21.3882H42.4686V22.8267H46.2411L42.3871 27.3968V28.5388H43.6109L43.611 28.5387Z" fill="#FFF1E8"/>
</svg>
