<svg width="32" height="32" viewBox="0 0 32 32" fill="none" xmlns="http://www.w3.org/2000/svg">
<path fillRule="evenodd" clipRule="evenodd" d="M17.6263 15.4999C16.2961 16.8301 14.4918 17.5775 12.6105 17.5775C10.7292 17.5775 8.925 16.8301 7.59473 15.4999C6.26445 14.1696 5.51711 12.3653 5.51711 10.4841C5.51711 8.60276 6.26445 6.79852 7.59473 5.46824C8.925 4.13797 10.7292 3.39062 12.6105 3.39062C14.4918 3.39062 16.2961 4.13797 17.6263 5.46824C18.9566 6.79852 19.704 8.60276 19.704 10.4841C19.704 12.3653 18.9566 14.1696 17.6263 15.4999ZM0 27.0994C0 22.7104 3.55657 19.1538 7.94562 19.1538H17.2693L16.8654 19.5057L16.8412 19.53C16.4735 19.8977 16.3008 20.353 16.3008 20.831C16.3008 21.7548 16.9837 22.5119 17.8847 22.6138V23.3145C17.882 23.3629 17.8821 23.4014 17.8822 23.4158L17.8822 23.4197V26.1891C17.8822 27.2883 18.7729 28.179 19.8721 28.179H20.2681C20.3022 28.179 20.335 28.1778 20.363 28.1762C20.394 28.1778 20.4306 28.179 20.4686 28.179H21.8545C22.9537 28.179 23.8444 27.2883 23.8444 26.1891V24.2193H24.6832C24.8167 24.5624 24.927 24.9171 25.0122 25.2815V26.1891C25.0122 26.5084 25.0874 26.8102 25.221 27.0776C25.2211 27.0849 25.2211 27.0921 25.2211 27.0994C25.2211 27.9319 24.5462 28.6117 23.7088 28.6117H1.51228C0.679787 28.6117 0 27.9368 0 27.0994ZM18.6547 19.273C21.0441 19.691 23.066 21.1761 24.2112 23.2193H23.6364C23.1983 23.2193 22.8444 23.5732 22.8444 24.0112V26.1891C22.8444 26.736 22.4014 27.179 21.8545 27.179H20.4686C20.4315 27.179 20.3944 27.1766 20.3573 27.1741C20.3276 27.1766 20.2978 27.179 20.2681 27.179H19.8721C19.3252 27.179 18.8822 26.736 18.8822 26.1891V23.4197C18.8822 23.395 18.8822 23.3727 18.8847 23.3504V21.6255H18.0927C17.6473 21.6255 17.3008 21.2765 17.3008 20.831C17.3008 20.6083 17.375 20.4103 17.5483 20.2371L18.6547 19.273Z" fill="#E7E7E7"/>
<path d="M30.759 21.6255C31.1797 21.6255 31.551 21.279 31.551 20.831C31.5757 20.6083 31.4767 20.4103 31.2787 20.2371L29.972 19.0863V16.0917C29.972 15.6537 29.6181 15.2998 29.18 15.2998H28.3881C27.95 15.2998 27.5961 15.6537 27.5961 16.0917V17L24.9604 14.6811C24.8119 14.5573 24.614 14.5078 24.4407 14.5078C24.2675 14.5078 24.0695 14.5326 23.8962 14.7058L17.5483 20.2371C17.375 20.4103 17.3008 20.6083 17.3008 20.831C17.3008 21.2765 17.6473 21.6255 18.0927 21.6255H18.8847V23.3504C18.8822 23.3727 18.8822 23.395 18.8822 23.4197V26.1891C18.8822 26.736 19.3252 27.179 19.8721 27.179H20.2681C20.2978 27.179 20.3275 27.1766 20.3572 27.1741C20.3943 27.1766 20.4315 27.179 20.4686 27.179H21.2605H21.8545C22.4014 27.179 22.8444 26.736 22.8444 26.1891V25.5951V24.0112C22.8444 23.5732 23.1983 23.2193 23.6364 23.2193H25.2203C25.6583 23.2193 26.0122 23.5732 26.0122 24.0112V25.5951V26.1891C26.0122 26.736 26.4552 27.179 27.0022 27.179H27.5961H28.4005C28.4351 27.179 28.4698 27.179 28.5044 27.1766C28.5316 27.179 28.5589 27.179 28.5861 27.179H28.9821C29.529 27.179 29.972 26.736 29.972 26.1891V25.7882C29.9794 25.7238 29.9844 25.657 29.9844 25.5877L29.967 21.623H30.759V21.6255Z" fill="#A7A9AC"/>
</svg>
