<svg width="32" height="32" viewBox="0 0 32 32" fill="none" xmlns="http://www.w3.org/2000/svg">
<path d="M12.4735 6.59686C12.8634 6.59686 13.2075 6.27573 13.2075 5.86056C13.2304 5.65412 13.1387 5.47062 12.9552 5.31006L11.7441 4.24346V1.46801C11.7441 1.06201 11.416 0.734003 11.0101 0.734003H10.276C9.87005 0.734003 9.54204 1.06201 9.54204 1.46801V2.30982L7.09919 0.160563C6.96156 0.0458752 6.77806 0 6.6175 0C6.45694 0 6.27344 0.0229376 6.11287 0.183501L0.229376 5.31006C0.0688128 5.47062 0 5.65412 0 5.86056C0 6.27344 0.321127 6.59686 0.734003 6.59686H1.46801V8.19561C1.46571 8.21625 1.46571 8.23689 1.46571 8.25983V10.8266C1.46571 11.3335 1.8763 11.7441 2.38322 11.7441H2.75022C2.77774 11.7441 2.80527 11.7418 2.83279 11.7395C2.8672 11.7418 2.90161 11.7441 2.93601 11.7441H3.67002H4.22052C4.72744 11.7441 5.13802 11.3335 5.13802 10.8266V10.276V8.80804C5.13802 8.40205 5.46603 8.07404 5.87203 8.07404H7.34003C7.74603 8.07404 8.07404 8.40205 8.07404 8.80804V10.276V10.8266C8.07404 11.3335 8.48462 11.7441 8.99154 11.7441H9.54204H10.2875C10.3196 11.7441 10.3517 11.7441 10.3839 11.7418C10.4091 11.7441 10.4343 11.7441 10.4595 11.7441H10.8266C11.3335 11.7441 11.7441 11.3335 11.7441 10.8266V10.455C11.7509 10.3953 11.7555 10.3334 11.7555 10.2692L11.7395 6.59456H12.4735V6.59686Z" fill="#A7A9AC"/>
<circle cx="19.3027" cy="19.3027" r="12.6973" fill="#E7E7E7"/>
<path fillRule="evenodd" clipRule="evenodd" d="M26.8768 13.9139C27.3402 14.3773 27.3402 15.1285 26.8768 15.5918L17.7732 24.6955C17.3099 25.1588 16.5587 25.1588 16.0954 24.6955L11.7265 20.3274C11.2631 19.8641 11.263 19.1129 11.7263 18.6495C12.1896 18.1862 12.9409 18.1861 13.4042 18.6494L16.9342 22.1787L25.1989 13.9139C25.6623 13.4506 26.4135 13.4506 26.8768 13.9139Z" fill="#A7A9AC"/>
</svg>
