<svg width="32" height="32" viewBox="0 0 32 32" fill="none" xmlns="http://www.w3.org/2000/svg">
<path d="M12.4735 6.59686C12.8634 6.59686 13.2075 6.27573 13.2075 5.86056C13.2304 5.65412 13.1387 5.47062 12.9552 5.31006L11.7441 4.24346V1.46801C11.7441 1.06201 11.416 0.734003 11.0101 0.734003H10.276C9.87005 0.734003 9.54204 1.06201 9.54204 1.46801V2.30982L7.09919 0.160563C6.96156 0.0458752 6.77806 0 6.6175 0C6.45694 0 6.27344 0.0229376 6.11287 0.183501L0.229376 5.31006C0.0688128 5.47062 0 5.65412 0 5.86056C0 6.27344 0.321127 6.59686 0.734003 6.59686H1.46801V8.19561C1.46571 8.21625 1.46571 8.23689 1.46571 8.25983V10.8266C1.46571 11.3335 1.8763 11.7441 2.38322 11.7441H2.75022C2.77774 11.7441 2.80527 11.7418 2.83279 11.7395C2.8672 11.7418 2.90161 11.7441 2.93601 11.7441H3.67002H4.22052C4.72744 11.7441 5.13802 11.3335 5.13802 10.8266V10.276V8.80804C5.13802 8.40205 5.46603 8.07404 5.87203 8.07404H7.34003C7.74603 8.07404 8.07404 8.40205 8.07404 8.80804V10.276V10.8266C8.07404 11.3335 8.48462 11.7441 8.99154 11.7441H9.54204H10.2875C10.3196 11.7441 10.3517 11.7441 10.3839 11.7418C10.4091 11.7441 10.4343 11.7441 10.4595 11.7441H10.8266C11.3335 11.7441 11.7441 11.3335 11.7441 10.8266V10.455C11.7509 10.3953 11.7555 10.3334 11.7555 10.2692L11.7395 6.59456H12.4735V6.59686Z" fill="#A7A9AC"/>
<circle cx="19.1602" cy="19.1602" r="12.8398" fill="#E7E7E7"/>
<path fillRule="evenodd" clipRule="evenodd" d="M25.4888 13.649C25.294 12.3752 22.5311 11.3652 19.1513 11.3652C15.7715 11.3652 13.0086 12.3752 12.8137 13.649H12.8027V13.793V24.5272V24.7553H12.8304C13.131 25.9892 15.8462 26.955 19.1513 26.955C22.4564 26.955 25.1716 25.9892 25.4722 24.7553H25.4998V24.5272V13.793V13.649H25.4888Z" fill="#A7A9AC" fillOpacity="0.905882"/>
<ellipse cx="19.0956" cy="13.5503" rx="5.26943" ry="1.50144" fill="#E7E7E7"/>
<path d="M19.167 15.9969C15.9317 15.9969 15.0243 15.2451 13.834 14.8691V17.4535C14.2254 17.8764 15.8401 18.7222 19.167 18.7222C22.4939 18.7222 24.0459 17.7824 24.406 17.3126V14.8691C23.247 15.2451 22.5632 15.9969 19.167 15.9969Z" fill="#E7E7E7"/>
<path d="M19.167 19.6824C15.9317 19.6824 15.0243 18.9306 13.834 18.5547V21.1391C14.2254 21.562 15.8401 22.4078 19.167 22.4078C22.4939 22.4078 24.0459 21.468 24.406 20.9981V18.5547C23.247 18.9306 22.5632 19.6824 19.167 19.6824Z" fill="#E7E7E7"/>
<path d="M19.167 23.3992C15.9317 23.3992 15.0243 22.6474 13.834 22.2715V24.8559C14.2254 25.2788 15.8401 26.1246 19.167 26.1246C22.4939 26.1246 24.0459 25.1848 24.406 24.7149V22.2715C23.247 22.6474 22.5632 23.3992 19.167 23.3992Z" fill="#E7E7E7"/>
</svg>
