<svg width="32" height="33" viewBox="0 0 32 33" fill="none" xmlns="http://www.w3.org/2000/svg">
<rect x="2.43359" y="3.74512" width="9.54998" height="7.6984" fill="#E7E7E7" fillOpacity="0.905882"/>
<path fillRule="evenodd" clipRule="evenodd" d="M3.8 2.36836V3.74336V11.4434H10.4V3.74336V2.36836C10.4 1.30617 9.53719 0.443359 8.475 0.443359H5.725C4.66281 0.443359 3.8 1.30617 3.8 2.36836ZM11.5 3.74336V11.4434H12.05C12.9609 11.4434 13.7 10.7043 13.7 9.79336V5.39336C13.7 4.48242 12.9609 3.74336 12.05 3.74336H11.5ZM2.15 3.74336H2.7V11.4434H2.15C1.23906 11.4434 0.5 10.7043 0.5 9.79336V5.39336C0.5 4.48242 1.23906 3.74336 2.15 3.74336ZM6.37715 1.43567C5.47176 1.43567 4.73779 2.16963 4.73779 3.07502V3.63043H9.51404V3.07502C9.51404 2.16963 8.78008 1.43567 7.87469 1.43567H6.37715Z" fill="#A7A9AC"/>
<circle cx="19" cy="19" r="13" fill="#E7E7E7"/>
<path fillRule="evenodd" clipRule="evenodd" d="M25.4145 13.4186C25.2158 12.1294 22.419 11.1074 18.998 11.1074C15.5771 11.1074 12.7803 12.1294 12.5816 13.4186H12.5703V13.5655V24.4342V24.6634H12.5979C12.9002 25.9135 15.6502 26.8922 18.998 26.8922C22.3459 26.8922 25.0959 25.9135 25.3982 24.6634H25.4258V24.4342V13.5655V13.4186H25.4145Z" fill="#A7A9AC" fillOpacity="0.905882"/>
<ellipse cx="18.9406" cy="13.318" rx="5.33516" ry="1.52017" fill="#E7E7E7"/>
<path d="M19.0128 15.7961C15.7372 15.7961 14.8185 15.0349 13.6133 14.6543V17.2709C14.0096 17.6991 15.6444 18.5554 19.0128 18.5554C22.3812 18.5554 23.9525 17.6039 24.3172 17.1282V14.6543C23.1437 15.0349 22.4514 15.7961 19.0128 15.7961Z" fill="#E7E7E7"/>
<path d="M19.0128 19.5276C15.7372 19.5276 14.8185 18.7663 13.6133 18.3857V21.0024C14.0096 21.4305 15.6444 22.2869 19.0128 22.2869C22.3812 22.2869 23.9525 21.3354 24.3172 20.8596V18.3857C23.1437 18.7663 22.4514 19.5276 19.0128 19.5276Z" fill="#E7E7E7"/>
<path d="M19.0128 23.2912C15.7372 23.2912 14.8185 22.53 13.6133 22.1494V24.766C14.0096 25.1942 15.6444 26.0505 19.0128 26.0505C22.3812 26.0505 23.9525 25.0991 24.3172 24.6233V22.1494C23.1437 22.53 22.4514 23.2912 19.0128 23.2912Z" fill="#E7E7E7"/>
</svg>
