<svg width="32" height="33" viewBox="0 0 32 33" fill="none" xmlns="http://www.w3.org/2000/svg">
<path fillRule="evenodd" clipRule="evenodd" d="M17.6263 15.9422C16.2961 17.2725 14.4918 18.0199 12.6105 18.0199C10.7292 18.0199 8.925 17.2725 7.59473 15.9422C6.26445 14.612 5.51711 12.8077 5.51711 10.9264C5.51711 9.04514 6.26445 7.2409 7.59473 5.91062C8.925 4.58035 10.7292 3.83301 12.6105 3.83301C14.4918 3.83301 16.2961 4.58035 17.6263 5.91062C18.9566 7.2409 19.704 9.04514 19.704 10.9264C19.704 12.8077 18.9566 14.612 17.6263 15.9422ZM0 27.5418C0 23.1527 3.55657 19.5962 7.94562 19.5962H16.8996C16.7464 19.9352 16.661 20.3115 16.661 20.7077V25.5217C16.661 27.0137 17.8712 28.2238 19.3631 28.2238H25.0587C24.8097 28.7156 24.2997 29.0541 23.7088 29.0541H1.51228C0.679787 29.0541 0 28.3792 0 27.5418Z" fill="#E7E7E7"/>
<path fillRule="evenodd" clipRule="evenodd" d="M21.1691 17.3981V18.9025V27.3271H28.3902V18.9025V17.3981C28.3902 16.236 27.4462 15.292 26.2841 15.292H23.2753C22.1131 15.292 21.1691 16.236 21.1691 17.3981ZM29.5937 18.9025V27.3271H30.1955C31.1921 27.3271 32.0007 26.5185 32.0007 25.5218V20.7078C32.0007 19.7111 31.1921 18.9025 30.1955 18.9025H29.5937ZM19.3639 18.9025H19.9656V27.3271H19.3639C18.3672 27.3271 17.5586 26.5185 17.5586 25.5218V20.7078C17.5586 19.7111 18.3672 18.9025 19.3639 18.9025ZM23.9888 16.3777C22.9982 16.3777 22.1952 17.1807 22.1952 18.1713V18.779H27.4209V18.1713C27.4209 17.1807 26.6178 16.3777 25.6272 16.3777H23.9888Z" fill="#A7A9AC"/>
</svg>
