<svg width="32" height="33" viewBox="0 0 32 33" fill="none" xmlns="http://www.w3.org/2000/svg">
<rect x="2.42969" y="3.74512" width="9.54998" height="7.6984" fill="#E7E7E7"/>
<path fillRule="evenodd" clipRule="evenodd" d="M3.8 2.36836V3.74336V11.4434H10.4V3.74336V2.36836C10.4 1.30617 9.53719 0.443359 8.475 0.443359H5.725C4.66281 0.443359 3.8 1.30617 3.8 2.36836ZM11.5 3.74336V11.4434H12.05C12.9609 11.4434 13.7 10.7043 13.7 9.79336V5.39336C13.7 4.48242 12.9609 3.74336 12.05 3.74336H11.5ZM2.15 3.74336H2.7V11.4434H2.15C1.23906 11.4434 0.5 10.7043 0.5 9.79336V5.39336C0.5 4.48242 1.23906 3.74336 2.15 3.74336ZM6.37715 1.43567C5.47176 1.43567 4.73779 2.16963 4.73779 3.07502V3.63043H9.51404V3.07502C9.51404 2.16963 8.78008 1.43567 7.87469 1.43567H6.37715Z" fill="#A7A9AC"/>
<circle cx="19" cy="19" r="13" fill="#E7E7E7"/>
<path fillRule="evenodd" clipRule="evenodd" d="M26.7542 13.4808C27.2286 13.9552 27.2286 14.7243 26.7542 15.1987L17.4335 24.5194C16.9591 24.9938 16.19 24.9938 15.7156 24.5195L11.2426 20.0472C10.7682 19.5729 10.7681 18.8038 11.2424 18.3293C11.7168 17.8549 12.4859 17.8548 12.9603 18.3292L16.5744 21.9426L25.0363 13.4808C25.5106 13.0064 26.2798 13.0064 26.7542 13.4808Z" fill="#A7A9AC"/>
</svg>
