<svg width="22" height="22" viewBox="0 0 22 22" fill="none" xmlns="http://www.w3.org/2000/svg">
<path fillRule="evenodd" clipRule="evenodd" d="M0.359375 0.540039H11.5947V8.56581L10.4431 9.56927V9.38334H8.83871V10.9672L7.87408 11.8078H6.44971V13.0489L5.93695 13.4957L5.91874 13.5139C5.58503 13.8476 5.43066 14.2554 5.43066 14.6884C5.43066 15.5827 6.13916 16.3 7.03957 16.3H7.14848V17.3914C7.14565 17.4365 7.14574 17.474 7.14579 17.4912L7.14579 17.496V20.4994C7.14579 20.9012 7.27558 21.2725 7.49552 21.5737H0.359375V0.540039ZM11.5947 9.56058V21.4625C11.4515 21.5333 11.2901 21.5731 11.1194 21.5731H9.61629C9.57605 21.5731 9.5357 21.5704 9.49546 21.5677L9.49539 21.5677C9.46322 21.5704 9.43105 21.5731 9.39888 21.5731H8.96943C8.37625 21.5731 7.89579 21.0926 7.89579 20.4994V17.496C7.89579 17.4691 7.89579 17.445 7.89848 17.4208V15.55H7.03957C6.55644 15.55 6.18066 15.1715 6.18066 14.6884C6.18066 14.4468 6.26119 14.2321 6.44907 14.0442L7.17445 13.4122H8.0541V12.6457L8.83871 11.962V13.4122H10.4431V11.8078H9.01573L9.95686 10.9877H10.4431V10.564L11.5947 9.56058ZM3.27872 2.10739H1.67434V3.71178H3.27872V2.10739ZM3.27872 4.53314H1.67434V6.13753H3.27872V4.53314ZM1.67434 6.95758H3.27872V8.56197H1.67434V6.95758ZM3.27872 9.38334H1.67434V10.9877H3.27872V9.38334ZM1.67434 11.8078H3.27872V13.4122H1.67434V11.8078ZM5.6651 2.10739H4.06071V3.71178H5.6651V2.10739ZM4.06071 4.53314H5.6651V6.13753H4.06071V4.53314ZM5.6651 6.95758H4.06071V8.56197H5.6651V6.95758ZM4.06071 9.38334H5.6651V10.9877H4.06071V9.38334ZM5.6651 11.8078H4.06071V13.4122H5.6651V11.8078ZM6.44971 2.10739H8.0541V3.71178H6.44971V2.10739ZM8.0541 4.53314H6.44971V6.13753H8.0541V4.53314ZM6.44971 6.95758H8.0541V8.56197H6.44971V6.95758ZM8.0541 9.38334H6.44971V10.9877H8.0541V9.38334ZM10.4431 2.10739H8.83871V3.71178H10.4431V2.10739ZM8.83871 4.53314H10.4431V6.13753H8.83871V4.53314ZM10.4431 6.95758H8.83871V8.56197H10.4431V6.95758Z" fill="#E7E7E7"/>
<path d="M20.7757 15.55C21.232 15.55 21.6346 15.1742 21.6346 14.6884C21.6615 14.4468 21.5541 14.2321 21.3394 14.0442L19.9222 12.7961V9.54838C19.9222 9.0733 19.5384 8.68947 19.0633 8.68947H18.2044C17.7293 8.68947 17.3455 9.0733 17.3455 9.54838V10.5334L14.4869 8.01845C14.3259 7.88425 14.1112 7.83057 13.9233 7.83057C13.7354 7.83057 13.5207 7.85741 13.3328 8.04529L6.4481 14.0442C6.26021 14.2321 6.17969 14.4468 6.17969 14.6884C6.17969 15.1715 6.55546 15.55 7.03859 15.55H7.8975V17.4208C7.89482 17.445 7.89482 17.4691 7.89482 17.496V20.4994C7.89482 21.0926 8.37527 21.5731 8.96845 21.5731H9.3979C9.43011 21.5731 9.46232 21.5704 9.49453 21.5677C9.53479 21.5704 9.57505 21.5731 9.61532 21.5731H10.4742H11.1184C11.7116 21.5731 12.192 21.0926 12.192 20.4994V19.8553V18.1375C12.192 17.6624 12.5759 17.2785 13.0509 17.2785H14.7688C15.2438 17.2785 15.6277 17.6624 15.6277 18.1375V19.8553V20.4994C15.6277 21.0926 16.1081 21.5731 16.7013 21.5731H17.3455H18.2178C18.2554 21.5731 18.293 21.5731 18.3305 21.5704C18.3601 21.5731 18.3896 21.5731 18.4191 21.5731H18.8486C19.4418 21.5731 19.9222 21.0926 19.9222 20.4994V20.0646C19.9303 19.9948 19.9356 19.9224 19.9356 19.8472L19.9168 15.5473H20.7757V15.55Z" fill="#A7A9AC"/>
</svg>
