<svg width="376" height="92" viewBox="0 0 376 92" fill="none" xmlns="http://www.w3.org/2000/svg">
<path d="M178.18 32.3424C178.18 49.8029 164.215 63.9574 146.989 63.9574C129.762 63.9574 115.797 49.8029 115.797 32.3424C115.797 14.882 129.762 0.727539 146.989 0.727539C164.215 0.727539 178.18 14.882 178.18 32.3424Z" fill="#FFF1E8"/>
<path d="M3.5625 4.10059H15.9236V60.1222H3.5625V4.10059Z" fill="#FB9600"/>
<path fillRule="evenodd" clipRule="evenodd" d="M0 0.491211H19.4833V63.7316H0V0.491211ZM3.56106 4.10059V60.1222H15.9222V4.10059H3.56106Z" fill="#FFF1E8"/>
<path d="M28.0547 31.3291H48.9586V39.719H28.0547V31.3291Z" fill="#FB9600"/>
<path fillRule="evenodd" clipRule="evenodd" d="M24.4961 27.7197H52.5221V43.3284H24.4961V27.7197ZM28.0572 31.3291V39.719H48.961V31.3291H28.0572Z" fill="#FFF1E8"/>
<path fillRule="evenodd" clipRule="evenodd" d="M60.4688 4.33691H72.9029V4.39772H88.056C88.5239 4.35743 88.9968 4.33691 89.4741 4.33691C89.9514 4.33691 90.4244 4.35743 90.8922 4.39772H91.5063V4.46224C100.435 5.5706 107.374 13.8948 107.374 23.9993C107.374 31.9373 103.092 38.7767 96.9262 41.8819L108.959 60.0977H94.6379C91.967 55.3572 87.0973 46.7701 85.2305 43.6616H72.9029V60.1219H60.4688V4.33691ZM72.9029 33.8808V14.6487H83.2372C92.1853 14.6487 94.8166 19.1887 94.8166 24.2691C94.8166 29.3127 92.3797 33.8808 83.3782 33.8808H72.9029Z" fill="#FB9600"/>
<path fillRule="evenodd" clipRule="evenodd" d="M76.4625 0.727539V0.788342H87.9109C88.4273 0.748003 88.8881 0.788342 89.4127 0.788342C89.9373 0.788342 90.5181 0.748003 91.0345 0.788342H93.3088L95.0085 1.11752C104.302 3.81741 110.934 13.4307 110.934 23.9993C110.934 31.7428 107.431 38.7044 101.923 42.9605L115.627 63.7071H92.5693L91.5441 61.8876C89.2694 57.8502 85.4387 51.0921 83.2096 47.271H76.4625V63.7313H56.9062V0.727539H76.4625ZM85.2291 43.6616C87.0958 46.7701 91.9656 55.3572 94.6365 60.0977H108.957L96.9248 41.8819C97.989 41.346 98.9971 40.6987 99.9367 39.9538C104.441 36.383 107.373 30.5672 107.373 23.9993C107.373 13.8948 100.434 5.57061 91.5049 4.46224V4.39772H90.8908C90.4229 4.35744 89.95 4.33692 89.4727 4.33692C88.9954 4.33692 88.5224 4.35744 88.0546 4.39772H72.9015V4.33692H60.4673V60.1219H72.9015V43.6616H85.2291ZM72.9015 33.8808V14.6487H83.2358C92.1838 14.6487 94.8151 19.1887 94.8151 24.2691C94.8151 29.3127 92.3783 33.8808 83.3768 33.8808H72.9015ZM76.4625 18.2581V30.2714H83.3768C87.3282 30.2714 89.1145 29.2714 89.9431 28.4246C90.776 27.5735 91.2541 26.2514 91.2541 24.2691C91.2541 22.3257 90.7568 20.9969 89.8844 20.1276C89.0043 19.2505 87.1578 18.2581 83.2358 18.2581H76.4625Z" fill="#FFF1E8"/>
<path fillRule="evenodd" clipRule="evenodd" d="M171.949 45.3089C174.04 41.3348 175.225 36.797 175.225 31.9786C175.225 16.3107 162.694 3.60938 147.236 3.60938C131.777 3.60938 119.246 16.3107 119.246 31.9786C119.246 33.7371 119.404 35.4581 119.706 37.1281C120.306 36.7175 121.383 35.2236 121.571 31.9857C121.842 27.3204 123.683 22.7648 124.712 20.2949C125.741 17.8251 128.936 13.7635 133.322 10.8545C137.708 7.94553 141.445 6.73803 145.181 6.73803C148.918 6.73803 151.463 6.73803 155.524 8.11019C159.585 9.48235 162.564 10.9643 166.571 15.6296C170.578 20.2949 172.69 26.7715 173.015 30.9978C173.272 34.3383 172.422 41.8474 171.949 45.3089ZM120.899 41.6052C120.673 40.9703 120.469 40.3248 120.287 39.6698C120.419 39.538 120.567 39.3926 120.723 39.2382L120.723 39.2381L120.723 39.2381C121.675 38.2967 122.961 37.0249 123.324 36.5154C123.958 35.6259 123.958 32.0679 123.909 30.0418C123.87 28.4209 124.38 26.566 124.64 25.8412H126.834C126.883 26.4506 126.951 27.8573 126.834 28.6084C126.767 29.0383 126.721 29.8621 126.662 30.9041C126.592 32.1376 126.505 33.6768 126.347 35.2304C126.113 37.5234 124.234 40.4357 123.324 41.6052H120.899ZM123.006 46.1907C122.508 45.3194 122.054 44.4188 121.647 43.4921C122.282 43.3522 123.067 43.1167 123.685 42.8198C125.002 42.1878 127.53 40.0205 127.966 38.0152C128.155 37.1461 128.274 35.4854 128.404 33.6906C128.574 31.3439 128.76 28.7681 129.138 27.4335C129.805 25.0782 131.187 22.0239 132.883 20.1952C134.579 18.3665 136.166 17.0907 138.32 15.8568C140.043 14.8696 141.834 14.322 142.514 14.1716H143.704V15.8568C142.098 16.3172 138.91 18.0582 137.299 19.2186C133.307 22.0955 131.601 25.8765 131.008 29.7314C130.76 31.3497 130.695 33.0635 130.633 34.6942C130.528 37.4726 130.432 40.0096 129.451 41.4214C127.895 43.6618 125.978 45.3569 124.944 45.6441C124.337 45.8126 123.561 46.0325 123.006 46.1907ZM125.406 49.7354C124.968 49.1831 124.55 48.6139 124.153 48.0288C124.841 47.7831 125.774 47.4211 126.47 47.0635C127.38 46.5965 128.262 45.6665 129.378 44.4897L129.378 44.4897L129.378 44.4896C129.744 44.104 130.135 43.692 130.56 43.2611C132.24 41.5579 132.527 39.5908 132.779 37.8595L132.798 37.7288C133.056 35.9663 133.877 34.3344 134.553 34.3344C135.229 34.3344 135.648 35.0687 135.519 36.717C135.39 38.3653 135.055 40.0625 133.394 43.408C132.066 46.0831 130.741 47.0574 129.473 47.9898C129.156 48.2235 128.841 48.4545 128.532 48.7091C127.56 49.5074 126.267 49.7234 125.406 49.7354ZM129.092 53.5812C128.322 52.9161 127.588 52.2094 126.893 51.4646C128.529 50.6436 131.19 49.2762 132.06 48.7091C132.664 48.3157 133.124 47.5992 133.572 46.9021C134.032 46.1854 134.479 45.4892 135.055 45.1859C136.192 44.5876 136.848 45.8728 136.848 46.4489C136.848 47.025 135.515 48.5096 133.394 50.7033C131.954 52.1936 130.148 53.1501 129.092 53.5812ZM133.207 56.5328C132.366 56.0377 131.552 55.4995 130.769 54.9211C131.595 54.5613 133.362 53.6908 134.798 52.649C136.696 51.2722 138.436 49.5894 139.944 46.6062C141.452 43.623 142.434 38.3855 142.61 37.4272C142.786 36.4689 143.951 36.4328 144.371 36.5348C144.791 36.6368 144.818 37.4527 144.818 38.957C144.818 40.4614 144.346 42.0174 143.239 44.7704C142.132 47.5234 140.217 50.3307 137.372 53.3885C135.428 55.4775 133.939 56.3039 133.207 56.5328ZM138.274 58.8626C137.429 58.5734 136.602 58.2444 135.796 57.8778C136.655 57.0507 137.841 55.9521 139.018 54.9779C141.222 53.1538 143.238 50.1737 144.818 47.0552C146.398 43.9367 147.064 38.0789 147.209 35.1272C147.355 32.1755 148.228 31.3784 149.059 31.4912C149.891 31.604 150.214 33.1199 149.948 35.1272C149.682 37.1346 147.953 45.2274 144.951 50.9767C142.549 55.5761 139.794 58.1504 138.716 58.8626H138.274ZM143.673 60.1202C142.677 59.992 141.698 59.8107 140.737 59.5793C141.528 58.7088 142.7 57.4632 143.461 56.8021C144.526 55.8771 146.404 52.5891 147.38 50.8798C147.5 50.6707 147.605 50.4853 147.695 50.3307C148.514 48.9118 149.368 47.766 149.948 47.766C150.529 47.766 151.09 48.1851 151.09 49.0502C151.09 49.7295 149.923 51.6249 148.694 53.6203C148.358 54.1663 148.017 54.7197 147.695 55.2578C146.512 57.2299 144.548 59.294 143.673 60.1202ZM148.89 60.2991C148.343 60.3315 147.791 60.3479 147.236 60.3479C146.813 60.3479 146.392 60.3383 145.973 60.3195C146.764 59.4429 147.78 58.2855 148.646 57.2151C150.311 55.1572 151.809 51.9844 153.541 47.766C155.272 43.5477 156.238 35.5497 156.204 33.1199C156.191 32.1116 156.079 31.1324 155.985 30.3005C155.851 29.1274 155.751 28.247 156.005 27.9904C156.437 27.5517 157.203 27.7879 157.799 28.4291C158.394 29.0703 158.602 31.5614 158.602 34.706C158.602 37.8506 157.799 41.9616 157.203 44.5263C156.736 46.537 155.16 49.9996 153.811 52.9628L153.811 52.9628L153.81 52.9633L153.81 52.9643L153.81 52.9648L153.809 52.9654C153.438 53.781 153.084 54.5587 152.775 55.2578C151.724 57.6369 149.881 59.4966 148.89 60.2991ZM156.251 58.8441C154.758 59.3587 153.208 59.7489 151.614 60.0028C151.899 59.6043 152.2 59.1963 152.51 58.7781C153.546 57.3757 154.667 55.8592 155.522 54.209C156.585 52.1562 156.966 50.7272 157.21 49.8108C157.402 49.0901 157.51 48.6864 157.799 48.5453C158.454 48.2249 159.506 48.1561 159.687 48.8657C159.93 49.8161 159.358 51.4122 158.759 53.0838L158.759 53.0841L158.758 53.0854L158.758 53.0868L158.757 53.0874L158.757 53.0882L158.757 53.0889C158.646 53.3974 158.535 53.7083 158.428 54.0183C157.951 55.3945 156.953 57.4967 156.251 58.8441ZM162.753 55.5923C161.54 56.413 160.26 57.1401 158.923 57.7636C159.534 56.1676 160.705 52.9869 161.753 49.7613C163.223 45.2352 164.002 41.9613 164.348 38.0255C164.694 34.0898 164.045 27.5057 163.094 25.3141C162.142 23.1225 158.337 19.0461 156.434 17.8626C155.159 17.0698 153.923 16.8474 152.635 16.6157L152.635 16.6157C152 16.5015 151.352 16.3851 150.681 16.197C148.649 15.6271 149.168 14.0491 149.644 13.4794C150.116 12.9136 150.972 13.1688 153.864 14.031L153.925 14.0491C156.655 14.8628 158.192 16.1676 160.266 17.9283L160.267 17.9286L160.269 17.9303C160.428 18.0657 160.591 18.2039 160.758 18.3448C163.093 20.3172 165.126 24.043 165.947 27.2428C166.769 30.4425 166.639 35.2641 166.35 38.9899C166.119 41.9749 165.472 45.1568 165.051 47.2283L165.051 47.2284L165.051 47.2286L165.051 47.2287L165.051 47.2289L165.051 47.2289L165.051 47.2292C164.946 47.7429 164.856 48.1883 164.789 48.5453C164.502 50.0803 163.394 54.0132 162.753 55.5923ZM168.691 50.1979C167.598 51.5185 166.389 52.7367 165.079 53.8363C165.424 52.8702 165.798 51.6138 166.115 50.5493L166.115 50.5491L166.115 50.5477L166.116 50.5463C166.198 50.2686 166.277 50.0041 166.35 49.7613C167.755 45.1039 168.291 42.5943 168.425 40.7178C168.553 38.9137 169.027 32.4883 169.094 31.8778C169.147 31.3895 169.651 31.1166 169.897 31.0412L170.901 31.5614C170.93 32.8048 170.972 35.581 170.901 36.7386C170.85 37.5515 170.716 38.4288 170.564 39.4183L170.564 39.4184L170.564 39.4185C170.445 40.1901 170.317 41.0301 170.209 41.9613C170.001 43.7636 169.413 48.1434 168.691 50.1979ZM129.805 20.8405H128.249C128.166 20.3505 128.051 19.1697 128.249 18.3665C128.496 17.3626 131.22 14.9962 132.883 13.5978C134.545 12.1995 139.639 9.51028 141.904 9.04416C144.168 8.57805 150.217 8.43475 153.436 9.22357C156.655 10.0124 161.041 12.5581 162.881 14.1716C164.721 15.7851 167.409 19.3347 167.586 20.1952C167.763 21.0558 166.312 21.1992 165.569 21.1992C165.178 21.1992 164.905 20.6826 164.533 19.9789C164.197 19.3457 163.782 18.5609 163.129 17.8647C161.749 16.3946 159.45 14.4939 157.15 13.239C154.851 11.9841 149.757 10.8011 144.627 11.1955C139.944 11.5556 137.944 13.0519 135.046 15.22C134.771 15.4263 134.487 15.6387 134.192 15.8568C131.475 17.8647 130.135 20.0159 129.805 20.8405ZM162.472 39.6957C162.346 40.4016 162.061 40.7178 161.111 40.7178C160.784 40.6125 160.098 40.2028 159.971 39.4069C159.912 39.0316 159.973 38.0351 160.053 36.75L160.053 36.7498L160.053 36.7493L160.053 36.7492V36.7492C160.185 34.628 160.366 31.7209 160.13 29.523C159.769 26.1771 156.309 23.379 154.709 22.0852L154.709 22.0851C154.621 22.0139 154.538 21.9473 154.462 21.8854C153.006 20.698 150.315 19.9599 148.858 19.8958C147.402 19.8316 146.135 20.0562 143.887 20.8906C141.639 21.7249 138.727 23.6504 137.523 25.5116C136.629 26.8948 136.487 27.8881 136.369 28.7155C136.328 29.0014 136.29 29.2675 136.224 29.523C135.97 30.5178 135.371 30.7424 134.769 30.7424C134.167 30.7424 134.009 29.9722 133.977 28.7849C133.946 27.5975 134.641 25.7363 136.224 23.6504C137.807 21.5645 141.164 19.0293 142.747 18.3448C144.331 17.6602 148.193 17.3927 150.681 17.8626C153.17 18.3325 156.963 20.6017 158.958 22.7197C160.953 24.8377 162.124 27.8222 162.472 29.2021C162.821 30.582 162.599 38.9899 162.472 39.6957ZM152.912 43.1903C153.541 41.4159 153.951 38.9451 154.099 36.0325C154.248 33.1199 154.169 30.6169 153.541 29.523C152.912 28.4291 150.924 27.1002 149.708 27.0401C149.486 27.0291 149.253 27.0079 149.014 26.9861L149.013 26.9861L149.013 26.9861C147.941 26.8886 146.737 26.7791 145.791 27.5213C144.634 28.4291 143.002 30.4385 142.972 31.4912C142.942 32.5438 142.972 33.3558 143.951 33.416C144.064 33.4229 144.17 33.4314 144.27 33.4394C145.035 33.5009 145.419 33.5318 145.524 32.5739C145.538 32.4446 145.55 32.3133 145.561 32.181L145.561 32.1808L145.561 32.1807L145.561 32.1807L145.561 32.1806C145.648 31.2043 145.739 30.1729 146.889 29.523C148.194 28.7849 149.441 28.691 150.538 29.7167C151.636 30.7424 151.903 31.6415 151.903 34.0175C151.903 35.4129 151.623 37.5242 151.391 39.2668C151.229 40.4911 151.09 41.5334 151.09 42.0174C151.09 42.2582 151.081 42.4661 151.072 42.6446C151.041 43.3357 151.029 43.5875 151.666 43.6114C152.307 43.6355 152.764 43.3407 152.912 43.1903ZM151.407 22.7197C152.547 23.0766 152.73 24.2393 152.68 24.7761C152.54 24.8531 152.091 24.9917 151.407 24.9301C150.744 24.8704 150.587 24.8107 150.052 24.6074L150.052 24.6074C149.897 24.5485 149.71 24.4776 149.47 24.3911C148.401 24.0061 146.355 24.2179 144.266 25.3536C142.217 26.4675 141.849 27.4817 141.083 29.5918L141.038 29.7167C140.388 31.506 140.343 35.1905 140.318 37.2637V37.2637V37.2638V37.2639V37.264V37.264V37.2641V37.2641C140.312 37.7346 140.307 38.122 140.297 38.3855C140.24 39.8099 139.936 40.4259 139.271 41.1959C138.607 41.9659 137.961 41.6771 137.372 41.0226C136.783 40.3682 137.391 38.9244 137.961 38.3855C138.531 37.8465 138.512 34.9783 138.436 33.2074C138.36 31.4364 138.968 27.8753 140.354 25.7386C141.74 23.6019 145.791 22.2929 147.21 22.1967C148.629 22.1004 149.983 22.2737 151.407 22.7197Z" fill="#FB9600"/>
<path fillRule="evenodd" clipRule="evenodd" d="M215.872 60.3479C232.014 60.3479 245.1 47.6465 245.1 31.9786C245.1 16.3107 232.014 3.60938 215.872 3.60938C199.73 3.60938 186.645 16.3107 186.645 31.9786C186.645 47.6465 199.73 60.3479 215.872 60.3479ZM215.906 49.4664C224.904 49.4664 232.198 41.7536 232.198 32.2395C232.198 22.7253 224.904 15.0125 215.906 15.0125C206.908 15.0125 199.614 22.7253 199.614 32.2395C199.614 41.7536 206.908 49.4664 215.906 49.4664Z" fill="#FB9600"/>
<path fillRule="evenodd" clipRule="evenodd" d="M248.659 31.9786C248.659 49.7856 233.832 63.9572 215.871 63.9572C197.909 63.9572 183.082 49.7856 183.082 31.9786C183.082 14.1717 197.909 0 215.871 0C233.832 0 248.659 14.1717 248.659 31.9786ZM215.905 45.857C222.795 45.857 228.635 39.9058 228.635 32.2395C228.635 24.5731 222.795 18.6219 215.905 18.6219C209.014 18.6219 203.174 24.5731 203.174 32.2395C203.174 39.9058 209.014 45.857 215.905 45.857ZM245.098 31.9786C245.098 47.6465 232.013 60.3479 215.871 60.3479C199.729 60.3479 186.643 47.6465 186.643 31.9786C186.643 16.3107 199.729 3.60938 215.871 3.60938C232.013 3.60938 245.098 16.3107 245.098 31.9786ZM232.196 32.2395C232.196 41.7536 224.902 49.4664 215.905 49.4664C206.907 49.4664 199.613 41.7536 199.613 32.2395C199.613 22.7253 206.907 15.0125 215.905 15.0125C224.902 15.0125 232.196 22.7253 232.196 32.2395Z" fill="#FFF1E8"/>
<path fillRule="evenodd" clipRule="evenodd" d="M255.168 4.03418H266.608V4.04255H268.174L284.968 37.6063L301.541 4.05057H303.168V4.03418H314.607V60.3475H303.168V22.6453L302.946 24.1084C298.458 34.1068 289.378 54.1036 288.963 54.1036H280.529L266.608 23.8861V60.3475H255.168V4.03418Z" fill="#FB9600"/>
<path fillRule="evenodd" clipRule="evenodd" d="M268.172 4.04256H266.606V4.03419H255.167V60.3475H266.606V23.8861L280.528 54.1037H288.962C289.288 54.1037 295.002 41.673 299.605 31.5129C300.84 28.7866 301.995 26.2237 302.945 24.1084L303.166 22.6453V60.3475H314.606V4.03419H303.166V4.05058H301.539L284.967 37.6063L268.172 4.04256ZM284.946 29.585L299.339 0.441194H299.605V0.424805H318.167V63.9569H299.605V40.1302C298.941 41.5817 298.284 43.0129 297.651 44.3843C296.208 47.5135 294.883 50.3485 293.889 52.4083C293.395 53.4326 292.968 54.2966 292.643 54.9177C292.485 55.2187 292.322 55.5193 292.171 55.7676C292.104 55.8784 291.983 56.0719 291.829 56.2714C291.761 56.3603 291.599 56.5647 291.36 56.7806C291.241 56.8887 291.02 57.0755 290.709 57.2515C290.43 57.4093 289.811 57.713 288.962 57.713H278.26L270.167 40.1463V63.9569H251.605V0.424805H270.167V0.433176H270.359L284.946 29.585Z" fill="#FFF1E8"/>
<path fillRule="evenodd" clipRule="evenodd" d="M334.798 60.3488H325.27V51.3367L355.276 15.2725H325.904V3.92136H364.414L364.422 3.91211H372.23V12.7259L342.726 48.9968H372.438V60.3479H334.799L334.798 60.3488Z" fill="#FB9600"/>
<path fillRule="evenodd" clipRule="evenodd" d="M321.711 63.9582V50.018L347.617 18.8819H322.346V0.311987H362.707L362.714 0.302734H375.793V14.0219L350.28 45.3874H376.002V63.9573H336.714L336.713 63.9582H321.711ZM334.801 60.3479H372.44V48.9968H342.728L372.232 12.7259V3.91212H364.424L364.417 3.92137H325.907V15.2725H355.278L325.272 51.3367V60.3488H334.801L334.801 60.3479Z" fill="#FFF1E8"/>
<path d="M370.283 81.1719C370.172 80.8267 370.025 80.5173 369.843 80.2439C369.664 79.967 369.45 79.7312 369.201 79.5364C368.955 79.3416 368.675 79.1929 368.361 79.0903C368.047 78.9878 367.703 78.9365 367.329 78.9365C366.715 78.9365 366.157 79.0972 365.655 79.4185C365.152 79.7397 364.753 80.2131 364.456 80.8386C364.159 81.4641 364.011 82.2315 364.011 83.1406C364.011 84.0498 364.161 84.8171 364.461 85.4426C364.761 86.0681 365.168 86.5415 365.68 86.8628C366.193 87.1841 366.769 87.3447 367.41 87.3447C368.004 87.3447 368.526 87.2166 368.978 86.9602C369.433 86.7005 369.787 86.3347 370.04 85.8631C370.297 85.388 370.425 84.8291 370.425 84.1865L370.809 84.2686H367.693V83.1406H371.639V84.2686C371.639 85.1333 371.457 85.8853 371.093 86.5244C370.732 87.1636 370.233 87.6592 369.595 88.0112C368.961 88.3599 368.233 88.5342 367.41 88.5342C366.493 88.5342 365.687 88.3154 364.992 87.8779C364.301 87.4404 363.761 86.8184 363.374 86.0117C362.989 85.2051 362.797 84.2481 362.797 83.1406C362.797 82.3101 362.906 81.5632 363.126 80.9002C363.348 80.2336 363.662 79.6663 364.066 79.198C364.471 78.7297 364.95 78.3709 365.503 78.1213C366.056 77.8718 366.665 77.7471 367.329 77.7471C367.875 77.7471 368.385 77.8308 368.857 77.9983C369.332 78.1624 369.755 78.3965 370.126 78.7007C370.501 79.0015 370.813 79.3621 371.062 79.7825C371.312 80.1995 371.484 80.6626 371.578 81.1719H370.283Z" fill="#676767"/>
<path d="M354.14 77.8906V88.3906H352.927L347.281 80.1465H347.18V88.3906H345.926V77.8906H347.14L352.805 86.1553H352.906V77.8906H354.14Z" fill="#676767"/>
<path d="M336.86 77.8906V88.3906H335.605V77.8906H336.86Z" fill="#676767"/>
<path d="M319.85 77.8906L322.926 86.7295H323.047L326.123 77.8906H327.438L323.634 88.3906H322.339L318.535 77.8906H319.85Z" fill="#676767"/>
<path d="M310.356 77.8906V88.3906H309.102V77.8906H310.356Z" fill="#676767"/>
<path d="M294.539 88.3906V77.8906H295.794V87.2627H300.609V88.3906H294.539Z" fill="#676767"/>
<path d="M267.723 79.0186V77.8906H275.492V79.0186H272.235V88.3906H270.98V79.0186H267.723Z" fill="#676767"/>
<path d="M252.625 88.3906V77.8906H256.125C256.935 77.8906 257.599 78.0308 258.118 78.311C258.638 78.5879 259.022 78.969 259.272 79.4543C259.521 79.9397 259.646 80.4917 259.646 81.1104C259.646 81.729 259.521 82.2776 259.272 82.7561C259.022 83.2346 258.639 83.6106 258.123 83.884C257.607 84.1541 256.948 84.2891 256.146 84.2891H253.313V83.1406H256.105C256.658 83.1406 257.103 83.0586 257.441 82.8945C257.781 82.7305 258.027 82.4981 258.179 82.1973C258.334 81.8931 258.412 81.5308 258.412 81.1104C258.412 80.6899 258.334 80.3225 258.179 80.0081C258.024 79.6936 257.776 79.4509 257.435 79.28C257.095 79.1057 256.645 79.0186 256.085 79.0186H253.879V88.3906H252.625ZM257.501 83.6738L260.051 88.3906H258.594L256.085 83.6738H257.501Z" fill="#676767"/>
<path d="M236.87 88.3906H235.555L239.359 77.8906H240.653L244.457 88.3906H243.142L240.046 79.5518H239.966L236.87 88.3906ZM237.355 84.2891H242.657V85.417H237.355V84.2891Z" fill="#676767"/>
<path d="M217.223 77.8906H218.72L222.241 86.6065H222.362L225.883 77.8906H227.38V88.3906H226.206V80.4131H226.105L222.868 88.3906H221.735L218.497 80.4131H218.396V88.3906H217.223V77.8906Z" fill="#676767"/>
<path d="M207.251 80.5156C207.19 79.9961 206.944 79.5928 206.513 79.3057C206.081 79.0186 205.551 78.875 204.924 78.875C204.466 78.875 204.064 78.9502 203.72 79.1006C203.38 79.251 203.113 79.4578 202.921 79.7209C202.732 79.9841 202.638 80.2832 202.638 80.6182C202.638 80.8984 202.704 81.1394 202.835 81.3411C202.97 81.5393 203.142 81.7051 203.351 81.8384C203.56 81.9683 203.779 82.0759 204.009 82.1614C204.238 82.2434 204.449 82.3101 204.641 82.3613L205.693 82.6484C205.963 82.7202 206.263 82.8193 206.594 82.9458C206.927 83.0723 207.246 83.2449 207.55 83.4636C207.856 83.679 208.109 83.9558 208.308 84.2942C208.507 84.6326 208.607 85.0479 208.607 85.54C208.607 86.1074 208.46 86.6201 208.167 87.0781C207.877 87.5361 207.452 87.9002 206.892 88.1702C206.336 88.4402 205.659 88.5752 204.864 88.5752C204.122 88.5752 203.479 88.4539 202.936 88.2112C202.397 87.9685 201.972 87.6301 201.662 87.1961C201.355 86.762 201.181 86.2578 201.141 85.6836H202.436C202.469 86.0801 202.601 86.4082 202.83 86.668C203.063 86.9243 203.356 87.1157 203.71 87.2422C204.068 87.3652 204.452 87.4268 204.864 87.4268C205.342 87.4268 205.772 87.3482 206.153 87.1909C206.534 87.0303 206.836 86.8081 207.059 86.5244C207.281 86.2373 207.393 85.9024 207.393 85.5195C207.393 85.1709 207.297 84.8872 207.104 84.6685C206.912 84.4497 206.659 84.272 206.346 84.1353C206.032 83.9985 205.693 83.8789 205.329 83.7764L204.054 83.4072C203.245 83.1714 202.604 82.8347 202.132 82.3972C201.66 81.9597 201.424 81.3872 201.424 80.6797C201.424 80.0918 201.581 79.5791 201.894 79.1416C202.211 78.7007 202.636 78.3589 203.169 78.1162C203.705 77.8701 204.304 77.7471 204.965 77.7471C205.632 77.7471 206.226 77.8684 206.745 78.1111C207.265 78.3503 207.676 78.6785 207.979 79.0955C208.286 79.5125 208.448 79.9858 208.465 80.5156H207.251Z" fill="#676767"/>
<path d="M182.212 82.5771V83.7051H177.68V82.5771H182.212Z" fill="#676767"/>
<path d="M148.141 77.8906H149.638L153.158 86.6065H153.28L156.8 77.8906H158.298V88.3906H157.124V80.4131H157.023L153.786 88.3906H152.653L149.415 80.4131H149.314V88.3906H148.141V77.8906Z" fill="#676767"/>
<path d="M139.477 83.1406C139.477 84.2481 139.28 85.2051 138.886 86.0117C138.491 86.8184 137.95 87.4404 137.262 87.8779C136.574 88.3154 135.788 88.5342 134.905 88.5342C134.021 88.5342 133.236 88.3154 132.548 87.8779C131.86 87.4404 131.318 86.8184 130.924 86.0117C130.529 85.2051 130.332 84.2481 130.332 83.1406C130.332 82.0332 130.529 81.0762 130.924 80.2695C131.318 79.4629 131.86 78.8408 132.548 78.4033C133.236 77.9658 134.021 77.7471 134.905 77.7471C135.788 77.7471 136.574 77.9658 137.262 78.4033C137.95 78.8408 138.491 79.4629 138.886 80.2695C139.28 81.0762 139.477 82.0332 139.477 83.1406ZM138.263 83.1406C138.263 82.2315 138.113 81.4641 137.813 80.8386C137.517 80.2131 137.114 79.7397 136.604 79.4185C136.099 79.0972 135.532 78.9365 134.905 78.9365C134.278 78.9365 133.709 79.0972 133.2 79.4185C132.694 79.7397 132.291 80.2131 131.991 80.8386C131.694 81.4641 131.546 82.2315 131.546 83.1406C131.546 84.0498 131.694 84.8171 131.991 85.4426C132.291 86.0681 132.694 86.5415 133.2 86.8628C133.709 87.1841 134.278 87.3447 134.905 87.3447C135.532 87.3447 136.099 87.1841 136.604 86.8628C137.114 86.5415 137.517 86.0681 137.813 85.4426C138.113 84.8171 138.263 84.0498 138.263 83.1406Z" fill="#676767"/>
<path d="M122.075 83.1406C122.075 84.2481 121.878 85.2051 121.483 86.0117C121.089 86.8184 120.548 87.4404 119.86 87.8779C119.172 88.3154 118.386 88.5342 117.502 88.5342C116.619 88.5342 115.833 88.3154 115.145 87.8779C114.457 87.4404 113.916 86.8184 113.522 86.0117C113.127 85.2051 112.93 84.2481 112.93 83.1406C112.93 82.0332 113.127 81.0762 113.522 80.2695C113.916 79.4629 114.457 78.8408 115.145 78.4033C115.833 77.9658 116.619 77.7471 117.502 77.7471C118.386 77.7471 119.172 77.9658 119.86 78.4033C120.548 78.8408 121.089 79.4629 121.483 80.2695C121.878 81.0762 122.075 82.0332 122.075 83.1406ZM120.861 83.1406C120.861 82.2315 120.711 81.4641 120.411 80.8386C120.114 80.2131 119.711 79.7397 119.202 79.4185C118.696 79.0972 118.13 78.9365 117.502 78.9365C116.875 78.9365 116.307 79.0972 115.798 79.4185C115.292 79.7397 114.889 80.2131 114.589 80.8386C114.292 81.4641 114.144 82.2315 114.144 83.1406C114.144 84.0498 114.292 84.8171 114.589 85.4426C114.889 86.0681 115.292 86.5415 115.798 86.8628C116.307 87.1841 116.875 87.3447 117.502 87.3447C118.13 87.3447 118.696 87.1841 119.202 86.8628C119.711 86.5415 120.114 86.0681 120.411 85.4426C120.711 84.8171 120.861 84.0498 120.861 83.1406Z" fill="#676767"/>
<path d="M97.6719 88.3906V77.8906H101.172C101.982 77.8906 102.646 78.0308 103.165 78.311C103.685 78.5879 104.069 78.969 104.319 79.4543C104.568 79.9397 104.693 80.4917 104.693 81.1104C104.693 81.729 104.568 82.2776 104.319 82.7561C104.069 83.2346 103.686 83.6106 103.17 83.884C102.654 84.1541 101.995 84.2891 101.192 84.2891H98.3598V83.1406H101.152C101.705 83.1406 102.15 83.0586 102.487 82.8945C102.828 82.7305 103.074 82.4981 103.226 82.1973C103.381 81.8931 103.459 81.5308 103.459 81.1104C103.459 80.6899 103.381 80.3225 103.226 80.0081C103.071 79.6936 102.823 79.4509 102.482 79.28C102.142 79.1057 101.692 79.0186 101.132 79.0186H98.9263V88.3906H97.6719ZM102.548 83.6738L105.098 88.3906H103.641L101.132 83.6738H102.548Z" fill="#676767"/>
<path d="M70.8555 79.0186V77.8906H78.6251V79.0186H75.3675V88.3906H74.113V79.0186H70.8555Z" fill="#676767"/>
<path d="M55.7578 88.3906V77.8906H59.2582C60.0675 77.8906 60.7318 78.0308 61.2512 78.311C61.7705 78.5879 62.1549 78.969 62.4045 79.4543C62.654 79.9397 62.7788 80.4917 62.7788 81.1104C62.7788 81.729 62.654 82.2776 62.4045 82.7561C62.1549 83.2346 61.7722 83.6106 61.2562 83.884C60.7403 84.1541 60.081 84.2891 59.2784 84.2891H56.4457V83.1406H59.2379C59.791 83.1406 60.2361 83.0586 60.5733 82.8945C60.9139 82.7305 61.1601 82.4981 61.3119 82.1973C61.467 81.8931 61.5445 81.5308 61.5445 81.1104C61.5445 80.6899 61.467 80.3225 61.3119 80.0081C61.1567 79.6936 60.9089 79.4509 60.5683 79.28C60.2277 79.1057 59.7775 79.0186 59.2177 79.0186H57.0123V88.3906H55.7578ZM60.634 83.6738L63.1834 88.3906H61.7266L59.2177 83.6738H60.634Z" fill="#676767"/>
<path d="M40.0027 88.3906H38.6875L42.4914 77.8906H43.7863L47.5902 88.3906H46.275L43.1793 79.5518H43.0984L40.0027 88.3906ZM40.4883 84.2891H45.7894V85.417H40.4883V84.2891Z" fill="#676767"/>
<path d="M20.3555 77.8906H21.8527L25.3733 86.6065H25.4947L29.0153 77.8906H30.5126V88.3906H29.3391V80.4131H29.2379L26.0006 88.3906H24.8675L21.6302 80.4131H21.529V88.3906H20.3555V77.8906Z" fill="#676767"/>
<path d="M10.3839 80.5156C10.3232 79.9961 10.077 79.5928 9.64538 79.3057C9.21374 79.0186 8.6843 78.875 8.05707 78.875C7.59845 78.875 7.19715 78.9502 6.85319 79.1006C6.51259 79.251 6.24619 79.4578 6.05397 79.7209C5.86513 79.9841 5.7707 80.2832 5.7707 80.6182C5.7707 80.8984 5.83646 81.1394 5.96798 81.3411C6.10287 81.5393 6.27485 81.7051 6.48393 81.8384C6.693 81.9683 6.9122 82.0759 7.14151 82.1614C7.37082 82.2434 7.58158 82.3101 7.7738 82.3613L8.82593 82.6484C9.09571 82.7202 9.39584 82.8193 9.72632 82.9458C10.0602 83.0723 10.3788 83.2449 10.6823 83.4636C10.9892 83.679 11.2421 83.9558 11.4411 84.2942C11.6401 84.6326 11.7395 85.0479 11.7395 85.54C11.7395 86.1074 11.5928 86.6201 11.2995 87.0781C11.0094 87.5361 10.5845 87.9002 10.0248 88.1702C9.46834 88.4402 8.79221 88.5752 7.99637 88.5752C7.25448 88.5752 6.61207 88.4539 6.06914 88.2112C5.52959 87.9685 5.10469 87.6301 4.79445 87.1961C4.48757 86.762 4.3139 86.2578 4.27344 85.6836H5.56837C5.60209 86.0801 5.73361 86.4082 5.96292 86.668C6.1956 86.9243 6.48899 87.1157 6.84307 87.2422C7.20052 87.3652 7.58496 87.4268 7.99637 87.4268C8.47522 87.4268 8.90518 87.3482 9.28624 87.1909C9.6673 87.0303 9.96912 86.8081 10.1917 86.5244C10.4142 86.2373 10.5255 85.9024 10.5255 85.5195C10.5255 85.1709 10.4294 84.8872 10.2372 84.6685C10.045 84.4497 9.79207 84.272 9.47846 84.1353C9.16484 83.9985 8.82593 83.8789 8.46173 83.7764L7.18704 83.4072C6.3777 83.1714 5.73698 82.8347 5.26487 82.3972C4.79276 81.9597 4.5567 81.3872 4.5567 80.6797C4.5567 80.0918 4.71351 79.5791 5.02713 79.1416C5.34412 78.7007 5.76902 78.3589 6.30183 78.1162C6.83801 77.8701 7.43658 77.7471 8.09753 77.7471C8.76523 77.7471 9.35874 77.8684 9.87807 78.1111C10.3974 78.3503 10.8088 78.6785 11.1123 79.0955C11.4192 79.5125 11.581 79.9858 11.5979 80.5156H10.3839Z" fill="#676767"/>
</svg>
